<svg width="80" height="28" viewBox="0 0 80 28" fill="none" xmlns="http://www.w3.org/2000/svg">
<path d="M24.4902 4.94141H23.6738V23.0591H24.4902V4.94141Z" fill="#00B073"/>
<path d="M73.7959 1.64706C76.3265 1.64706 78.449 3.87059 78.449 6.58824V21.4118C78.449 24.1294 76.3265 26.3529 73.7959 26.3529H6.20408C3.67347 26.3529 1.55102 24.1294 1.55102 21.4118V6.58824C1.55102 3.87059 3.67347 1.64706 6.20408 1.64706H73.7959ZM73.7959 0H6.20408C2.77551 0 0 2.96471 0 6.58824V21.4118C0 25.0353 2.77551 28 6.20408 28H73.7959C77.2245 28 80 25.0353 80 21.4118V6.58824C80 2.96471 77.2245 0 73.7959 0Z" fill="#00B073"/>
<path d="M19.836 5.76396C20.0809 5.35219 19.836 4.94043 19.4279 4.94043H15.5095H13.7952H12.4891C11.0197 4.94043 9.87685 5.35219 8.97889 6.09337C8.08093 6.9169 7.59113 7.98749 7.5095 9.46984L7.18297 13.3404C7.10134 14.8228 7.34623 15.9757 8.08093 16.7169C8.81562 17.5404 9.87685 17.8698 11.3462 17.8698H12.9789C13.3054 17.7875 13.4687 17.6228 13.4687 17.2934L13.6319 15.3993C13.6319 15.0698 13.3871 14.7404 13.0605 14.7404H12.1626C11.5911 14.7404 11.183 14.5757 10.9381 14.3287C10.6932 14.0816 10.6115 13.7522 10.6932 13.1757L11.0197 9.7169C11.1013 9.14043 11.2646 8.72866 11.5095 8.39925C11.7544 8.15219 12.2442 7.98749 12.8156 7.98749H13.5503H14.6932H17.5503C18.1217 7.98749 18.6115 7.65808 18.9381 7.24631L19.836 5.76396Z" fill="#00B073"/>
<path d="M6.44927 22.2346C6.20437 22.6464 6.44927 23.0582 6.85744 23.0582H10.9391H12.6534H13.9595C15.4289 23.0582 16.5717 22.6464 17.4697 21.9052C18.3676 21.0817 18.8574 20.0111 18.9391 18.5287L19.2656 14.6582C19.3472 13.1758 19.1023 12.0229 18.3676 11.2817C17.6329 10.4582 16.5717 10.1287 15.1023 10.1287H13.4697C13.1431 10.2111 12.9799 10.3758 12.9799 10.7052L12.8166 12.5993C12.8166 12.9287 13.0615 13.2582 13.388 13.2582H14.286C14.8574 13.2582 15.2656 13.4229 15.5105 13.6699C15.7554 13.917 15.837 14.3287 15.7554 14.9876L15.4289 18.4464C15.3472 19.0229 15.184 19.4346 14.9391 19.764C14.6942 20.0111 14.2044 20.1758 13.6329 20.1758H12.8983H11.7554H8.81662C8.24519 20.1758 7.75539 20.5052 7.42886 20.9993L6.44927 22.2346Z" fill="#00B073"/>
<path d="M31.4288 9.79893C31.4288 9.55187 31.3472 9.30481 31.2656 9.22246C31.1839 9.14011 30.8574 8.9754 30.5309 8.8107C29.8778 8.56364 29.4696 8.31658 29.1431 7.98717C28.8166 7.65775 28.735 7.24599 28.735 6.83423C28.735 6.25775 28.8982 5.84599 29.3064 5.51658C29.7145 5.18717 30.2043 5.02246 30.7758 5.02246C31.1839 5.02246 31.5105 5.10481 31.837 5.26952C32.1635 5.43423 32.4084 5.68128 32.5717 6.0107C32.735 6.34011 32.8166 6.66952 32.8166 7.08128H31.5105C31.5105 6.75187 31.4288 6.58717 31.3472 6.42246C31.1839 6.25775 31.0207 6.1754 30.7758 6.1754C30.5309 6.1754 30.3676 6.25775 30.286 6.34011C30.2043 6.42246 30.1227 6.66952 30.1227 6.91658C30.1227 7.08128 30.2043 7.24599 30.3676 7.4107C30.5309 7.5754 30.7758 7.74011 31.1023 7.82246C31.7554 8.06952 32.1635 8.31658 32.4901 8.64599C32.735 8.9754 32.8982 9.38717 32.8982 9.88128C32.8982 10.4578 32.735 10.8695 32.4084 11.1989C32.0819 11.5283 31.5921 11.693 30.939 11.693C30.5309 11.693 30.1227 11.6107 29.7962 11.446C29.4696 11.2813 29.2248 11.0342 28.9799 10.7048C28.8166 10.3754 28.6533 10.046 28.6533 9.55187H29.9594C29.9594 9.96364 30.0411 10.2107 30.2043 10.3754C30.3676 10.5401 30.6125 10.6225 30.939 10.6225C31.1839 10.5401 31.4288 10.293 31.4288 9.79893Z" fill="#0B1D2B"/>
<path d="M36.8977 8.729H34.8569V10.4584H37.2243V11.529H33.5508V5.10547H37.2243V6.17606H34.8569V7.65841H36.8977C36.8161 7.65841 36.8161 8.729 36.8977 8.729Z" fill="#0B1D2B"/>
<path d="M42.2857 9.38749C42.2857 10.1287 42.0408 10.7051 41.6326 11.0345C41.2245 11.364 40.7347 11.611 40 11.611C39.2653 11.611 38.6939 11.364 38.3673 10.8698C38.0408 10.3757 37.7959 9.7169 37.7959 8.81102V7.74043C37.7959 6.83455 37.9592 6.17572 38.3673 5.68161C38.7755 5.18749 39.3469 4.94043 40 4.94043C40.7347 4.94043 41.2245 5.10514 41.551 5.5169C41.8775 5.92866 42.1224 6.50514 42.2041 7.24631H40.8979C40.8979 6.75219 40.8163 6.50514 40.653 6.34043C40.4898 6.17572 40.3265 6.09337 39.9183 6.09337C39.5918 6.09337 39.3469 6.17572 39.1837 6.42278C39.0204 6.66984 38.9388 7.08161 38.9388 7.65808V8.89337C38.9388 9.55219 39.0204 9.96396 39.1837 10.211C39.3469 10.4581 39.5918 10.5404 39.9183 10.5404C40.2449 10.5404 40.4898 10.4581 40.653 10.2934C40.8163 10.1287 40.8163 9.79925 40.8979 9.38749H42.2857Z" fill="#0B1D2B"/>
<path d="M47.2644 5.02278V9.46984C47.2644 10.1287 47.1012 10.6228 46.693 11.0345C46.2848 11.4463 45.795 11.5287 45.142 11.5287C44.4889 11.5287 43.9175 11.364 43.591 10.9522C43.2644 10.6228 43.0195 10.0463 43.0195 9.38749V4.94043H44.3257V9.38749C44.3257 9.7169 44.4073 10.0463 44.4889 10.1287C44.5706 10.2934 44.8154 10.3757 45.142 10.3757C45.4685 10.3757 45.6318 10.2934 45.795 10.1287C45.8767 9.96396 45.9583 9.7169 45.9583 9.38749V4.94043L47.2644 5.02278Z" fill="#0B1D2B"/>
<path d="M50.1223 9.14076H49.4692V11.529H48.1631V5.10547H50.2039C50.857 5.10547 51.3468 5.27017 51.6733 5.59959C51.9998 5.929 52.1631 6.42312 52.1631 6.99959C52.1631 7.82312 51.8366 8.48194 51.2651 8.81135L52.408 11.4466V11.529H51.0202L50.1223 9.14076ZM49.5508 8.07017H50.2855C50.5304 8.07017 50.7753 7.98782 50.857 7.82312C51.0202 7.65841 51.0202 7.41135 51.0202 7.16429C51.0202 6.50547 50.7753 6.17606 50.2855 6.17606H49.5508V8.07017Z" fill="#0B1D2B"/>
<path d="M56.4895 8.729H54.4487V10.4584H56.816V11.529H53.1426V5.10547H56.816V6.17606H54.4487V7.65841H56.4895V8.729Z" fill="#0B1D2B"/>
<path d="M57.6328 11.529V5.10547H59.3471C60.0818 5.10547 60.6532 5.35253 61.143 5.84665C61.5512 6.34076 61.7961 6.99959 61.7961 7.82312V8.8937C61.7961 9.71723 61.5512 10.3761 61.143 10.8702C60.7349 11.3643 60.0818 11.6114 59.3471 11.6114L57.6328 11.529ZM58.8573 6.17606V10.4584H59.2655C59.6736 10.4584 60.0002 10.3761 60.1634 10.129C60.3267 9.88194 60.4083 9.47017 60.4083 8.97606V7.82312C60.4083 7.24665 60.3267 6.83488 60.1634 6.58782C60.0002 6.34076 59.6736 6.25841 59.3471 6.17606H58.8573Z" fill="#0B1D2B"/>
<path d="M64.7344 11.529V5.10547H66.6936C67.3466 5.10547 67.8364 5.27017 68.2446 5.51723C68.5711 5.84665 68.7344 6.25841 68.7344 6.83488C68.7344 7.16429 68.6527 7.41135 68.4895 7.65841C68.3262 7.90547 68.1629 8.07017 67.918 8.15253C68.2446 8.23488 68.4078 8.39959 68.5711 8.64665C68.7344 8.8937 68.816 9.22312 68.816 9.55253C68.816 10.2114 68.6527 10.6231 68.3262 10.9525C67.9997 11.2819 67.5099 11.4466 66.8568 11.4466H64.7344V11.529ZM66.0405 7.74076H66.6936C67.1833 7.74076 67.4282 7.4937 67.4282 6.91723C67.4282 6.58782 67.3466 6.42312 67.265 6.25841C67.1834 6.0937 66.9385 6.0937 66.6936 6.0937H66.0405C66.0405 6.17606 66.0405 7.74076 66.0405 7.74076ZM66.0405 8.729V10.4584H66.8568C67.1017 10.4584 67.265 10.3761 67.3466 10.2114C67.4283 10.0466 67.5099 9.88194 67.5099 9.63488C67.5099 9.05841 67.265 8.729 66.8568 8.729H66.0405Z" fill="#0B1D2B"/>
<path d="M71.4279 7.98782L72.4075 5.10547H73.7952L72.081 9.22312V11.529H70.7748V9.22312L69.0605 5.10547H70.4483L71.4279 7.98782Z" fill="#0B1D2B"/>
<path d="M28.8975 20.7523V20.5052C28.8975 20.3405 28.9791 20.1758 29.224 20.1758H30.3668C30.5301 20.1758 30.6934 20.2582 30.6934 20.5052V20.5876C30.6934 20.917 30.775 21.1641 30.9383 21.3288C31.1015 21.4935 31.3464 21.4935 31.673 21.4935H32.326C32.6526 21.4935 32.9791 21.4111 33.0607 21.2464C33.224 21.0817 33.3056 20.8346 33.3056 20.4229V20.2582C33.3056 20.0111 33.224 19.7641 32.9791 19.5993C32.7342 19.4346 32.4893 19.3523 32.1628 19.3523C31.8362 19.3523 31.5097 19.2699 31.1015 19.1876C30.6934 19.1052 30.3668 19.0229 30.0403 18.8582C29.7138 18.6935 29.4689 18.4464 29.224 18.117C28.9791 17.7876 28.8975 17.2935 28.8975 16.717V16.2229C28.8975 15.4817 29.0607 14.9052 29.4689 14.4935C29.8771 14.0817 30.4485 13.917 31.1832 13.917H32.5709C33.3056 13.917 33.8771 14.0817 34.2852 14.4935C34.6934 14.9052 34.8566 15.4817 34.8566 16.2229V16.4699C34.8566 16.6346 34.775 16.7993 34.5301 16.7993H33.3873C33.224 16.7993 33.0607 16.717 33.0607 16.4699C33.0607 16.1405 32.9791 15.8935 32.8158 15.7288C32.6526 15.5641 32.4077 15.5641 32.0811 15.5641H31.5097C31.1015 15.5641 30.8566 15.6464 30.775 15.8111C30.6117 15.9758 30.6117 16.2229 30.6117 16.6346V16.8817C30.6117 17.2935 31.0199 17.5405 31.7546 17.6229C32.5709 17.7052 33.224 17.8699 33.8771 18.117C34.2036 18.2817 34.4485 18.5288 34.6934 18.8582C34.9383 19.1876 35.0199 19.6817 35.0199 20.2582V20.7523C35.0199 21.4935 34.8566 22.0699 34.4485 22.4817C34.0403 22.8935 33.4689 23.0582 32.7342 23.0582H31.1832C30.4485 23.0582 29.8771 22.8935 29.4689 22.4817C29.0607 21.9876 28.8975 21.4935 28.8975 20.7523Z" fill="#0B1D2B"/>
<path d="M41.3872 23.0578H36.8158C36.6525 23.0578 36.4893 22.9755 36.4893 22.7284V14.3284C36.4893 14.1637 36.5709 13.999 36.8158 13.999H41.3872C41.5505 13.999 41.6321 14.0814 41.6321 14.3284V15.3167C41.6321 15.4814 41.5505 15.6461 41.3872 15.6461H38.4484C38.3668 15.5637 38.3668 15.6461 38.3668 15.7284V17.5402C38.3668 17.6226 38.4484 17.7049 38.5301 17.7049H40.8974C41.0607 17.7049 41.224 17.7873 41.224 18.0343V18.9402C41.224 19.1049 41.1423 19.2696 40.8974 19.2696H38.5301C38.4484 19.2696 38.3668 19.352 38.3668 19.4343V21.4108C38.3668 21.4931 38.4484 21.5755 38.5301 21.5755H41.4688C41.6321 21.5755 41.7137 21.6578 41.7137 21.9049V22.8931C41.7137 22.8931 41.6321 23.0578 41.3872 23.0578Z" fill="#0B1D2B"/>
<path d="M46.8572 23.0578H45.3062C44.5715 23.0578 44.0001 22.8931 43.5919 22.4814C43.1838 22.0696 43.0205 21.4931 43.0205 20.752V16.3049C43.0205 15.5637 43.1838 14.9873 43.5919 14.5755C44.0001 14.1637 44.5715 13.999 45.3062 13.999H46.8572C47.5919 13.999 48.1634 14.1637 48.5715 14.5755C48.9797 14.9873 49.143 15.5637 49.143 16.2226V16.8814C49.143 17.0461 49.0613 17.2108 48.8164 17.2108H47.6736C47.5103 17.2108 47.347 17.1284 47.347 16.8814V16.3049C47.347 15.9755 47.2654 15.8108 47.1838 15.6461C47.0205 15.4814 46.8572 15.4814 46.5307 15.4814H45.5511C45.2246 15.4814 45.0613 15.5637 44.8981 15.6461C44.7348 15.8108 44.7348 15.9755 44.7348 16.3049V20.5873C44.7348 20.9167 44.8164 21.0814 44.8981 21.2461C45.0613 21.4108 45.2246 21.4108 45.5511 21.4108H46.5307C46.8572 21.4108 47.0205 21.3284 47.1838 21.2461C47.347 21.1637 47.347 20.9167 47.347 20.5873V20.0108C47.347 19.8461 47.4287 19.6814 47.6736 19.6814H48.8164C48.9797 19.6814 49.143 19.7637 49.143 20.0108V20.6696C49.143 21.4108 48.9797 21.9873 48.5715 22.3167C48.1634 22.8108 47.5919 23.0578 46.8572 23.0578Z" fill="#0B1D2B"/>
<path d="M53.4692 23.0582H52.3263C52.1631 23.0582 51.9998 22.9758 51.9998 22.7288V15.7288C51.9998 15.6464 51.9182 15.5641 51.8365 15.5641H50.2855C50.1223 15.5641 49.959 15.4817 49.959 15.2346V14.2464C49.959 14.0817 50.0406 13.917 50.2855 13.917H55.51C55.6733 13.917 55.8365 13.9993 55.8365 14.2464V15.2346C55.8365 15.3993 55.7549 15.5641 55.51 15.5641H53.8774C53.7957 15.5641 53.7141 15.6464 53.7141 15.7288V22.7288C53.7141 22.8935 53.6325 23.0582 53.4692 23.0582Z" fill="#0B1D2B"/>
<path d="M58.6944 14.3284V22.7284C58.6944 22.8931 58.6127 23.0578 58.3678 23.0578H57.225C57.0617 23.0578 56.8984 22.9755 56.8984 22.7284V14.3284C56.8984 14.1637 56.9801 13.999 57.225 13.999H58.3678C58.6127 13.999 58.6944 14.1637 58.6944 14.3284Z" fill="#0B1D2B"/>
<path d="M64.1623 23.0578H62.6929C61.9582 23.0578 61.3868 22.8931 60.9787 22.4814C60.5705 22.0696 60.4072 21.4931 60.4072 20.752V16.3049C60.4072 15.5637 60.5705 14.9873 60.9787 14.5755C61.3868 14.1637 61.9582 13.999 62.6929 13.999H64.1623C64.897 13.999 65.4684 14.1637 65.8766 14.5755C66.2848 14.9873 66.448 15.5637 66.448 16.2226V16.6343C66.448 16.799 66.3664 16.9637 66.1215 16.9637H64.9787C64.8154 16.9637 64.6521 16.8814 64.6521 16.6343V16.3049C64.6521 15.9755 64.5705 15.8108 64.4889 15.6461C64.4072 15.4814 64.1623 15.4814 63.8358 15.4814H62.9378C62.6113 15.4814 62.448 15.5637 62.2848 15.6461C62.1215 15.8108 62.1215 15.9755 62.1215 16.3049V20.5873C62.1215 20.9167 62.2031 21.0814 62.2848 21.2461C62.448 21.4108 62.6113 21.4108 62.9378 21.4108H63.8358C64.1623 21.4108 64.3256 21.3284 64.4889 21.2461C64.6521 21.1637 64.6521 20.9167 64.6521 20.5873V19.7637C64.6521 19.6814 64.5705 19.599 64.4889 19.599H63.6725C63.5093 19.599 63.346 19.5167 63.346 19.2696V18.2814C63.346 18.1167 63.4276 17.952 63.6725 17.952H66.1215C66.3664 17.952 66.448 18.0343 66.448 18.2814V20.5873C66.448 21.3284 66.2848 21.9049 65.8766 22.2343C65.4684 22.8108 64.897 23.0578 64.1623 23.0578Z" fill="#0B1D2B"/>
<path d="M71.8377 23.0578H70.2867C69.552 23.0578 68.9806 22.8931 68.5724 22.4814C68.1642 22.0696 68.001 21.4931 68.001 20.752V16.3049C68.001 15.5637 68.1642 14.9873 68.5724 14.5755C68.9806 14.1637 69.552 13.999 70.2867 13.999H71.8377C72.5724 13.999 73.1438 14.1637 73.552 14.5755C73.9602 14.9873 74.1234 15.5637 74.1234 16.3049V20.752C74.1234 21.4931 73.9602 22.0696 73.552 22.4814C73.1438 22.8108 72.5724 23.0578 71.8377 23.0578ZM70.5316 21.4931H71.5112C71.8377 21.4931 72.001 21.4108 72.1642 21.3284C72.3275 21.1637 72.3275 20.999 72.3275 20.6696V16.3873C72.3275 16.0578 72.2459 15.8931 72.1642 15.7284C72.001 15.5637 71.8377 15.5637 71.5112 15.5637H70.5316C70.2051 15.5637 70.0418 15.6461 69.8785 15.7284C69.7969 15.8931 69.7153 16.0578 69.7153 16.3873V20.6696C69.7153 20.999 69.7969 21.1637 69.8785 21.3284C70.0418 21.4108 70.2051 21.4931 70.5316 21.4931Z" fill="#0B1D2B"/>
</svg>
