<svg width="68" height="22" viewBox="0 0 68 22" fill="none" xmlns="http://www.w3.org/2000/svg">
<path d="M7.74681 18.8444C7.74681 19.3019 7.67194 19.6945 7.52219 20.0237C7.37244 20.3528 7.17955 20.6366 6.94352 20.8743C6.57162 21.2489 6.1199 21.5167 5.58883 21.676C5.05777 21.8358 4.49298 21.9157 3.89398 21.9157C3.37631 21.9157 2.86607 21.8403 2.36227 21.6895C1.85848 21.5386 1.40675 21.2804 1.00759 20.9148C0.717013 20.6495 0.476521 20.3224 0.286111 19.9343C0.095205 19.5462 0 19.1186 0 18.6526H1.79749C1.79749 18.8908 1.8446 19.1121 1.9403 19.3174C2.0355 19.5232 2.1555 19.6995 2.30128 19.8454C2.50954 20.0567 2.76144 20.195 3.05648 20.2644C3.35151 20.3329 3.63961 20.3668 3.92126 20.3668C4.25695 20.3668 4.5748 20.3284 4.8743 20.2505C5.1738 20.173 5.41429 20.0382 5.59577 19.8454C5.70486 19.7275 5.79511 19.6016 5.868 19.4683C5.94089 19.3359 5.97659 19.1511 5.97659 18.9133C5.97659 18.5572 5.86155 18.2895 5.62999 18.1112C5.39842 17.9333 5.13314 17.8165 4.83314 17.7615C4.50637 17.6976 4.14786 17.6516 3.75762 17.6247C3.36738 17.5977 3.01334 17.5552 2.69599 17.5003C2.35979 17.4453 2.04443 17.3494 1.74989 17.2126C1.45485 17.0752 1.19601 16.8949 0.973372 16.6706C0.751227 16.4469 0.574205 16.1771 0.442802 15.8615C0.310904 15.5463 0.244955 15.1877 0.244955 14.7851C0.244955 14.401 0.322309 14.0493 0.476521 13.7292C0.630733 13.409 0.835027 13.1213 1.0894 12.865C1.40675 12.5449 1.81534 12.2936 2.31467 12.1108C2.814 11.928 3.34953 11.8366 3.92126 11.8366C4.43844 11.8366 4.93529 11.9165 5.41181 12.0764C5.88833 12.2367 6.29047 12.4719 6.61675 12.7826C6.90732 13.0568 7.14087 13.368 7.31789 13.7152C7.49492 14.0628 7.58764 14.4419 7.59706 14.8535H5.80007C5.79065 14.6802 5.74751 14.5084 5.67065 14.3395C5.59329 14.1702 5.49561 14.0219 5.37809 13.8935C5.22338 13.7292 5.0057 13.6013 4.72455 13.5094C4.4429 13.4185 4.17067 13.3725 3.90737 13.3725C3.63515 13.3725 3.35598 13.409 3.07036 13.4819C2.78425 13.5553 2.54128 13.6972 2.34194 13.9075C2.24178 14.0169 2.16244 14.1357 2.10344 14.2641C2.04443 14.392 2.01517 14.5473 2.01517 14.7301C2.01517 15.0503 2.10591 15.2945 2.2874 15.4639C2.46888 15.6332 2.70491 15.7406 2.99549 15.786C3.30391 15.8325 3.65101 15.8735 4.03679 15.9094C4.42257 15.9464 4.77413 15.9873 5.09198 16.0328C5.45495 16.0877 5.79759 16.1866 6.1199 16.328C6.44221 16.4698 6.72336 16.6571 6.96435 16.8899C7.20434 17.1237 7.39525 17.4044 7.53607 17.7335C7.6759 18.0627 7.74681 18.4328 7.74681 18.8444Z" fill="#D6002A"/>
<path d="M15.3482 21.7519L14.6679 20.9837C14.2771 21.3313 13.8482 21.5871 13.3811 21.7519C12.9135 21.9162 12.4301 21.9987 11.9307 21.9987C11.5043 21.9987 11.0957 21.9302 10.7055 21.7929C10.3152 21.6565 9.97506 21.4617 9.68449 21.21C9.39441 20.9587 9.16284 20.65 8.99028 20.2844C8.81772 19.9188 8.73145 19.5067 8.73145 19.0497C8.73145 18.4463 8.88814 17.9303 9.20152 17.4998C9.51441 17.0702 9.92994 16.6956 10.4471 16.3754C10.2924 16.2106 10.1521 16.0488 10.0251 15.8879C9.89771 15.7286 9.78911 15.5658 9.69837 15.4009C9.60713 15.2366 9.53722 15.0628 9.48714 14.88C9.43755 14.6972 9.41226 14.4914 9.41226 14.2631C9.41226 13.879 9.48267 13.5359 9.6235 13.2342C9.76382 12.9325 9.95225 12.6742 10.1883 12.4595C10.4243 12.2447 10.7035 12.0824 11.0258 11.9725C11.3476 11.8631 11.6902 11.8081 12.0537 11.8081C12.4077 11.8081 12.7454 11.8606 13.0677 11.966C13.39 12.0709 13.6737 12.2262 13.9191 12.432C14.1641 12.6378 14.359 12.8895 14.5042 13.1862C14.6495 13.4834 14.7224 13.8241 14.7224 14.2082C14.7224 14.5283 14.6768 14.8135 14.5856 15.0653C14.4953 15.3165 14.3679 15.5453 14.2047 15.7511C14.0416 15.9564 13.8482 16.1462 13.6261 16.32C13.4034 16.4943 13.161 16.6581 12.8977 16.8135L14.5722 18.6516C14.654 18.4963 14.7105 18.3154 14.7423 18.1097C14.774 17.9039 14.7988 17.6871 14.8171 17.4583C14.8355 17.2391 14.8449 17.0243 14.8449 16.8135V16.2666H17.3361V17.6242H16.2199C16.2011 18.0083 16.1515 18.3874 16.0702 18.762C15.9883 19.1376 15.8431 19.4842 15.6343 19.8049L17.4174 21.7519H15.3482ZM11.4408 17.4453C11.2777 17.5462 11.1279 17.6426 10.9916 17.7335C10.8557 17.8249 10.7347 17.9308 10.6306 18.0492C10.5265 18.1681 10.4446 18.3025 10.3856 18.4538C10.3266 18.6051 10.2974 18.7805 10.2974 18.9823C10.2974 19.229 10.345 19.4483 10.4402 19.6406C10.5359 19.8324 10.6628 19.9922 10.8215 20.1206C10.9802 20.2485 11.1636 20.3439 11.3729 20.4083C11.5816 20.4722 11.7993 20.5037 12.0264 20.5037C12.3165 20.5037 12.6071 20.4627 12.8977 20.3803C13.1882 20.2979 13.4376 20.1386 13.6464 19.9003L11.4408 17.4453ZM13.1292 14.2776C13.1292 13.9394 13.0271 13.6787 12.8228 13.4959C12.619 13.3131 12.3621 13.2217 12.0537 13.2217C11.7726 13.2217 11.5226 13.3061 11.305 13.4754C11.0873 13.6447 10.9782 13.8985 10.9782 14.2366C10.9782 14.392 11.0074 14.5383 11.0664 14.6752C11.1255 14.8125 11.1979 14.9429 11.2846 15.0663C11.3704 15.1897 11.4681 15.3055 11.5772 15.4159C11.6858 15.5253 11.7904 15.6307 11.8906 15.7311C12.0354 15.6492 12.1826 15.5643 12.3329 15.4774C12.4821 15.391 12.616 15.2926 12.734 15.1822C12.852 15.0723 12.9472 14.9444 13.0201 14.7981C13.093 14.6527 13.1292 14.4789 13.1292 14.2776Z" fill="#D6002A"/>
<path d="M25.8896 15.127C25.8896 15.5935 25.8173 16.0181 25.672 16.4027C25.5267 16.7868 25.311 17.1159 25.0249 17.3902C24.7393 17.6644 24.3832 17.8777 23.9563 18.028C23.5299 18.1789 23.0394 18.2543 22.4861 18.2543H20.4441V21.7377H18.7012V12.0142H22.4861C23.0394 12.0142 23.5299 12.0896 23.9563 12.2405C24.3832 12.3913 24.7393 12.6016 25.0249 12.8713C25.311 13.141 25.5267 13.4677 25.672 13.8518C25.8173 14.2359 25.8896 14.661 25.8896 15.127ZM24.1204 15.141C24.1204 14.6745 23.9841 14.2953 23.7118 14.0026C23.4396 13.7104 23.0082 13.5641 22.4186 13.5641H20.4446V16.7044H22.4186C23.0082 16.7044 23.4396 16.5605 23.7118 16.2723C23.9836 15.9846 24.1204 15.6075 24.1204 15.141Z" fill="#D6002A"/>
<path d="M36.2355 21.7378L36.0312 20.6674C35.9588 20.8048 35.8497 20.9486 35.7049 21.0995C35.5592 21.2503 35.3807 21.3857 35.1669 21.5045C34.9532 21.6234 34.7152 21.7218 34.4524 21.7997C34.1896 21.8767 33.9075 21.9156 33.6085 21.9156C33.0457 21.9156 32.521 21.8382 32.0361 21.6824C31.5501 21.527 31.1168 21.2438 30.7359 20.8322C30.4816 20.5675 30.2748 20.2883 30.1166 19.9956C29.9574 19.7029 29.8305 19.3922 29.7353 19.063C29.6396 18.7339 29.5741 18.3887 29.5374 18.0281C29.5012 17.6665 29.4834 17.2854 29.4834 16.8823C29.4834 16.4902 29.4988 16.1131 29.531 15.751C29.5627 15.3898 29.6242 15.0497 29.7145 14.7295C29.8052 14.4093 29.9326 14.1031 30.0958 13.8104C30.2594 13.5182 30.4721 13.239 30.7359 12.9738C31.1078 12.5992 31.5501 12.3155 32.0629 12.1237C32.5756 11.9314 33.0913 11.8355 33.6085 11.8355C34.2075 11.8355 34.7519 11.9364 35.2423 12.1372C35.7322 12.3385 36.1408 12.6082 36.4676 12.9463C36.7041 13.1936 36.9029 13.4743 37.0666 13.79C37.2297 14.1051 37.3254 14.4783 37.3522 14.9078H35.5552C35.5369 14.7155 35.4873 14.5512 35.4054 14.4138C35.3236 14.277 35.2334 14.1446 35.1332 14.0162C34.797 13.6231 34.2843 13.4263 33.5941 13.4263C33.3129 13.4263 33.0268 13.4838 32.7367 13.5982C32.4462 13.7126 32.2057 13.8744 32.0153 14.0847C31.8516 14.2585 31.7202 14.4598 31.6201 14.688C31.5204 14.9168 31.443 15.1571 31.389 15.4083C31.3344 15.66 31.3002 15.9133 31.2868 16.169C31.273 16.4253 31.2665 16.6625 31.2665 16.8818C31.2665 17.1016 31.2749 17.3418 31.2933 17.6021C31.3116 17.8628 31.3478 18.121 31.4024 18.3768C31.4569 18.6335 31.5338 18.8772 31.6339 19.111C31.7336 19.3443 31.865 19.5476 32.0286 19.7214C32.2191 19.9317 32.4576 20.0865 32.7437 20.1874C33.0293 20.2883 33.3129 20.3387 33.5941 20.3387C33.9124 20.3387 34.1911 20.2883 34.4316 20.1874C34.6716 20.087 34.8739 19.9501 35.0375 19.7768C35.3008 19.5021 35.4709 19.2119 35.5483 18.9057C35.6251 18.5995 35.6633 18.2589 35.6633 17.8843H33.3625V16.4168H37.3651V21.7378H36.2355Z" fill="#D6002A"/>
<path d="M41.6274 21.7246C41.4544 21.7606 41.3294 21.7865 41.253 21.7995C41.1762 21.8135 41.0512 21.82 40.8787 21.82C40.2975 21.82 39.8304 21.6692 39.4764 21.3675C39.1223 21.0658 38.9453 20.5768 38.9453 19.9V11.8228H40.661V19.6128C40.661 19.8231 40.7016 19.9899 40.7835 20.1133C40.8653 20.2366 41.0512 20.2986 41.3418 20.2986C41.4142 20.2986 41.4687 20.2961 41.5049 20.2916C41.5411 20.2871 41.5818 20.2841 41.6274 20.2841V21.7246Z" fill="#D6002A"/>
<path d="M48.8506 18.1734C48.8506 18.7768 48.7777 19.2822 48.6329 19.6888C48.4877 20.0954 48.2834 20.4685 48.0201 20.8062C47.7756 21.1079 47.4369 21.3681 47.006 21.5879C46.5746 21.8066 46.0867 21.917 45.5423 21.917C44.9978 21.917 44.5099 21.8066 44.0795 21.5879C43.6481 21.3681 43.3094 21.1079 43.0649 20.8062C42.8016 20.468 42.5973 20.0954 42.4521 19.6888C42.3073 19.2822 42.2344 18.7768 42.2344 18.1734C42.2344 17.57 42.3073 17.0645 42.4521 16.6579C42.5973 16.2514 42.8016 15.8782 43.0649 15.5401C43.3094 15.2384 43.6481 14.9782 44.0795 14.7584C44.5099 14.5391 44.9978 14.4292 45.5423 14.4292C46.0867 14.4292 46.5746 14.5391 47.006 14.7584C47.4369 14.9782 47.7756 15.2384 48.0201 15.5401C48.2834 15.8787 48.4877 16.2514 48.6329 16.6579C48.7772 17.0645 48.8506 17.57 48.8506 18.1734ZM47.1211 18.1734C47.1211 17.8352 47.0893 17.5081 47.0259 17.1929C46.9619 16.8767 46.8265 16.605 46.6178 16.3762C46.4998 16.2484 46.35 16.141 46.1685 16.0541C45.987 15.9671 45.7783 15.9237 45.5418 15.9237C45.3057 15.9237 45.0975 15.9671 44.9155 16.0541C44.7335 16.141 44.5838 16.2484 44.4662 16.3762C44.2575 16.605 44.1216 16.8767 44.0581 17.1929C43.9947 17.5081 43.9629 17.8352 43.9629 18.1734C43.9629 18.5115 43.9947 18.8387 44.0581 19.1539C44.1216 19.4695 44.2575 19.7418 44.4662 19.97C44.5838 20.0979 44.734 20.2053 44.9155 20.2927C45.097 20.3796 45.3057 20.4231 45.5418 20.4231C45.7783 20.4231 45.9865 20.3796 46.1685 20.2927C46.35 20.2053 46.4998 20.0979 46.6178 19.97C46.8265 19.7418 46.9619 19.4695 47.0259 19.1539C47.0893 18.8387 47.1211 18.5115 47.1211 18.1734Z" fill="#D6002A"/>
<path d="M56.7036 18.1855C56.7036 18.8618 56.599 19.4631 56.3897 19.9886C56.181 20.5146 55.8636 20.9511 55.4367 21.2987C55.2195 21.4811 54.9676 21.6274 54.682 21.7373C54.3959 21.8472 54.0755 21.9016 53.7215 21.9016C53.3313 21.9016 52.9544 21.8267 52.5919 21.6759C52.229 21.5245 51.9424 21.2848 51.7341 20.9556L51.625 21.7373H50.1553V11.8355H51.8566V15.1271C52.0202 14.9263 52.2632 14.7595 52.585 14.6266C52.9073 14.4942 53.2817 14.4278 53.7086 14.4278C54.0711 14.4278 54.3964 14.4783 54.6825 14.5787C54.9681 14.6791 55.22 14.8209 55.4372 15.0037C56.2811 15.708 56.7036 16.7684 56.7036 18.1855ZM54.974 18.1585C54.974 17.8478 54.9438 17.5411 54.8853 17.2389C54.8263 16.9372 54.7063 16.668 54.5243 16.4308C54.3969 16.2744 54.2402 16.1426 54.0547 16.0322C53.8683 15.9228 53.6441 15.8683 53.3808 15.8683C53.0451 15.8683 52.7724 15.9393 52.5642 16.0806C52.3554 16.2225 52.1918 16.4048 52.0747 16.6296C51.9567 16.8533 51.8769 17.1006 51.8362 17.3698C51.7956 17.6395 51.7752 17.9022 51.7752 18.1585C51.7752 18.5056 51.8159 18.8598 51.8977 19.2214C51.979 19.5825 52.1427 19.8772 52.3876 20.106C52.5052 20.2159 52.646 20.3033 52.8101 20.3667C52.9732 20.4306 53.1637 20.4621 53.3813 20.4621C53.6446 20.4621 53.8688 20.4077 54.0552 20.2973C54.2407 20.1879 54.3974 20.0555 54.5248 19.8997C54.7063 19.6619 54.8263 19.3902 54.8858 19.0835C54.9443 18.7773 54.974 18.4697 54.974 18.1585Z" fill="#D6002A"/>
<path d="M64.2585 21.6568C64.1132 21.7212 63.9882 21.7692 63.8841 21.8007C63.78 21.8326 63.6238 21.8491 63.415 21.8491C63.0426 21.8491 62.757 21.7482 62.5572 21.5474C62.3573 21.3471 62.2443 21.1134 62.217 20.8486C62.0534 21.1413 61.7811 21.3926 61.3998 21.6029C61.0185 21.8131 60.5742 21.918 60.0665 21.918C59.6395 21.918 59.2671 21.8566 58.9493 21.7332C58.6314 21.6098 58.3662 21.445 58.1529 21.2392C57.9402 21.0334 57.7786 20.7962 57.67 20.5265C57.5609 20.2567 57.5068 19.9755 57.5068 19.6833C57.5068 19.3447 57.5678 19.0435 57.6903 18.7778C57.8123 18.5125 57.9834 18.2838 58.2005 18.092C58.4182 17.9002 58.6726 17.7513 58.9632 17.6464C59.2533 17.541 59.5661 17.4741 59.9028 17.4471L61.9854 17.2963V16.8567C61.9854 16.5186 61.9061 16.2459 61.7474 16.0406C61.5888 15.8348 61.2689 15.7319 60.7869 15.7319C60.3878 15.7319 60.0774 15.8193 59.8547 15.9921C59.6326 16.1664 59.5126 16.4177 59.4937 16.7468H57.8465C57.8738 16.3443 57.9665 15.9966 58.1257 15.7044C58.2838 15.4117 58.4956 15.172 58.7579 14.9847C59.0212 14.7974 59.3256 14.658 59.6703 14.5666C60.0154 14.4752 60.3873 14.4292 60.7864 14.4292C61.3954 14.4292 61.9373 14.5366 62.4139 14.7514C62.8899 14.9667 63.233 15.3438 63.4413 15.8827C63.532 16.1115 63.589 16.3493 63.6119 16.596C63.6342 16.8427 63.6461 17.0855 63.6461 17.3228V19.97C63.6461 20.1344 63.6753 20.2512 63.7343 20.3197C63.7933 20.3881 63.8955 20.4226 64.0408 20.4226C64.1132 20.4226 64.1633 20.4181 64.1905 20.4086C64.2183 20.4086 64.2406 20.4041 64.2585 20.3956V21.6568ZM61.9849 18.571L60.188 18.7078C59.9251 18.7263 59.6886 18.8132 59.4799 18.9681C59.2706 19.1244 59.1665 19.3482 59.1665 19.6409C59.1665 19.9151 59.2686 20.1319 59.4729 20.2922C59.6772 20.4525 59.9108 20.5315 60.1741 20.5315C60.7096 20.5315 61.1455 20.3926 61.4811 20.1134C61.8168 19.8347 61.9849 19.4301 61.9849 18.8996V18.571Z" fill="#D6002A"/>
<path d="M68.0005 21.7246C67.8279 21.7606 67.7029 21.7865 67.6261 21.7995C67.5487 21.8135 67.4238 21.82 67.2517 21.82C66.6706 21.82 66.2035 21.6692 65.8494 21.3675C65.4954 21.0658 65.3184 20.5768 65.3184 19.9V11.8228H67.0335V19.6128C67.0335 19.8231 67.0747 19.9899 67.1565 20.1133C67.2383 20.2366 67.4238 20.2986 67.7144 20.2986C67.7872 20.2986 67.8413 20.2961 67.878 20.2916C67.9142 20.2871 67.9548 20.2841 68.0005 20.2841V21.7246Z" fill="#D6002A"/>
<path d="M68.0002 7.70364H0.000976562V8.84731H68.0002V7.70364Z" fill="#000B20"/>
<path d="M2.15564 0.041172H0.380859V4.84459H1.09485V3.21143H2.15564C3.32522 3.21143 3.89642 2.59384 3.89642 1.63316C3.89642 0.658754 3.32522 0.041172 2.15564 0.041172ZM2.15564 2.58012H1.09485V0.672478H2.15564C2.80163 0.672478 3.13483 1.02244 3.13483 1.63316C3.13483 2.23702 2.80163 2.58012 2.15564 2.58012Z" fill="#000B20"/>
<path d="M5.86149 1.24203C5.0931 1.24203 4.18191 1.78413 4.18191 3.06732C4.18191 4.35052 5.0931 4.89262 5.86149 4.89262C6.62308 4.89262 7.53427 4.35052 7.53427 3.06732C7.53427 1.78413 6.62308 1.24203 5.86149 1.24203ZM6.87468 3.06732C6.87468 3.9388 6.38508 4.32307 5.86149 4.32307C5.33789 4.32307 4.8415 3.9388 4.8415 3.06732C4.8415 2.19585 5.33789 1.81157 5.86149 1.81157C6.38508 1.81157 6.87468 2.19585 6.87468 3.06732Z" fill="#000B20"/>
<path d="M12.9549 1.27634H12.2613L11.5337 3.97997L10.6293 1.27634H10.0785L9.17411 3.97997L8.44652 1.27634H7.75293L8.78652 4.84459H9.39851L10.3505 2.1135L11.3093 4.84459H11.9213L12.9549 1.27634Z" fill="#000B20"/>
<path d="M16.4644 3.12222C16.4644 1.79099 15.7096 1.24203 14.8528 1.24203C14.0164 1.24203 13.1732 1.79099 13.1732 3.07419C13.1732 4.3368 14.0028 4.89262 14.8528 4.89262C15.6076 4.89262 16.0904 4.61128 16.3488 3.97311H15.73C15.5532 4.24759 15.3084 4.36425 14.8936 4.36425C14.2952 4.36425 13.9008 4.04859 13.8328 3.30063H16.4576C16.4644 3.23887 16.4644 3.18398 16.4644 3.12222ZM13.8328 2.84774C13.9008 2.12036 14.3088 1.7704 14.8528 1.7704C15.424 1.7704 15.7912 2.15468 15.8048 2.84774H13.8328Z" fill="#000B20"/>
<path d="M18.8982 1.24203C18.2386 1.24203 17.8442 1.64002 17.7354 2.12036V1.27634H17.0486V4.84459H17.7354V2.82029C17.8374 2.23702 18.2182 1.86647 18.9458 1.86647C18.9934 1.86647 19.0546 1.86647 19.1634 1.87333V1.26261C19.0546 1.24203 18.973 1.24203 18.8982 1.24203Z" fill="#000B20"/>
<path d="M22.7065 3.12222C22.7065 1.79099 21.9517 1.24203 21.0949 1.24203C20.2585 1.24203 19.4153 1.79099 19.4153 3.07419C19.4153 4.3368 20.2449 4.89262 21.0949 4.89262C21.8497 4.89262 22.3325 4.61128 22.5909 3.97311H21.9721C21.7953 4.24759 21.5505 4.36425 21.1357 4.36425C20.5373 4.36425 20.1429 4.04859 20.0749 3.30063H22.6997C22.7065 3.23887 22.7065 3.18398 22.7065 3.12222ZM20.0749 2.84774C20.1429 2.12036 20.5509 1.7704 21.0949 1.7704C21.6661 1.7704 22.0333 2.15468 22.0469 2.84774H20.0749Z" fill="#000B20"/>
<path d="M24.7179 1.24203C24.0039 1.24203 23.1539 1.78413 23.1539 3.06046C23.1539 4.35738 23.9971 4.89262 24.7315 4.89262C25.3571 4.89262 25.7175 4.48776 25.8331 4.17897V4.84459H26.5199V0H25.8331V1.87333C25.6495 1.51651 25.2347 1.24203 24.7179 1.24203ZM24.8471 4.32307C24.2963 4.32307 23.8203 3.9388 23.8203 3.06046C23.8203 2.18899 24.2963 1.81157 24.8471 1.81157C25.3843 1.81157 25.8671 2.19585 25.8671 3.06046C25.8671 3.91821 25.3843 4.32307 24.8471 4.32307Z" fill="#000B20"/>
<path d="M30.9298 1.24203C30.413 1.24203 29.9982 1.51651 29.8146 1.87333V0H29.1278V4.84459H29.8146V4.17897C29.9302 4.48776 30.2906 4.89262 30.9162 4.89262C31.6506 4.89262 32.4937 4.35738 32.4937 3.06046C32.4937 1.78413 31.6438 1.24203 30.9298 1.24203ZM30.8006 4.32307C30.2634 4.32307 29.7806 3.91821 29.7806 3.06046C29.7806 2.19585 30.2634 1.81157 30.8006 1.81157C31.3514 1.81157 31.8274 2.18899 31.8274 3.06046C31.8274 3.9388 31.3514 4.32307 30.8006 4.32307Z" fill="#000B20"/>
<path d="M35.3557 1.27634L34.3221 4.01428L33.3157 1.27634H32.6085L33.9277 4.59755C33.9957 4.76224 33.9957 4.84459 33.9277 5.023C33.7849 5.37296 33.5469 5.62686 32.9893 5.55824V6.15523C33.7577 6.24444 34.1861 5.93565 34.5533 5.01614L36.0561 1.27634H35.3557Z" fill="#000B20"/>
</svg>
