<svg width="80" height="24" viewBox="0 0 80 24" fill="none" xmlns="http://www.w3.org/2000/svg">
<path d="M5.68827 0.285515H23.4094V18.2374C23.4094 18.9941 23.2623 19.7434 22.9764 20.4426C22.6905 21.1417 22.2716 21.7769 21.7433 22.312C21.2151 22.8471 20.5881 23.2715 19.8979 23.5611C19.2078 23.8507 18.4681 23.9998 17.7211 23.9998H0V6.04785C0 4.51959 0.599298 3.05391 1.66605 1.97326C2.73281 0.892617 4.17964 0.285515 5.68827 0.285515Z" fill="url(#paint0_linear)"/>
<path d="M27.542 18.5063H28.3287L29.4865 22.4987L30.6295 18.5063H31.2232L32.3588 22.4987L33.5166 18.5063H34.3033L32.7893 23.7618H32.0693L30.9189 19.792L29.776 23.7618H29.0561L27.542 18.5063Z" fill="#000B20"/>
<path d="M35.3836 23.6442C35.0874 23.4989 34.8397 23.2689 34.6711 22.9826C34.5004 22.6944 34.415 22.3548 34.415 21.9638C34.415 21.5779 34.4992 21.2395 34.6674 20.9488C34.8349 20.6588 35.0826 20.4248 35.3799 20.2759C35.6866 20.118 36.0404 20.0391 36.4412 20.0391C36.842 20.0391 37.1958 20.118 37.5025 20.2759C37.8004 20.4254 38.0491 20.6592 38.2188 20.9488C38.3895 21.2396 38.4748 21.5779 38.4748 21.9638C38.4748 22.3548 38.3895 22.6944 38.2188 22.9826C38.0494 23.2696 37.8003 23.4997 37.5025 23.6442C37.1957 23.797 36.8419 23.8735 36.4412 23.8735C36.0404 23.8735 35.6879 23.7971 35.3836 23.6442ZM37.3615 22.9111C37.5891 22.6706 37.7029 22.3548 37.7029 21.9638C37.7029 21.5578 37.5891 21.237 37.3615 21.0014C37.1339 20.7659 36.8271 20.6481 36.4412 20.6481C36.0553 20.6481 35.7485 20.7659 35.5209 21.0014C35.2933 21.2371 35.1795 21.5579 35.1795 21.9638C35.1795 22.3548 35.2933 22.6706 35.5209 22.9111C35.7484 23.1517 36.0552 23.272 36.4412 23.272C36.8272 23.272 37.1339 23.1517 37.3615 22.9111Z" fill="#000B20"/>
<path d="M39.292 20.1533H40.0193V20.7999C40.1678 20.5794 40.3768 20.4165 40.6465 20.3112C40.9161 20.2059 41.2291 20.1533 41.5854 20.1533V20.7473C41.2043 20.7473 40.8777 20.8099 40.6057 20.9352C40.3335 21.0606 40.1455 21.2586 40.0416 21.5292V23.7622H39.292V20.1533Z" fill="#000B20"/>
<path d="M42.251 18.2051H43.0006V23.7613H42.251V18.2051Z" fill="#000B20"/>
<path d="M44.7266 23.6372C44.4456 23.483 44.2139 23.2509 44.0586 22.9681C43.8978 22.6799 43.8174 22.3453 43.8174 21.9643C43.8174 21.5884 43.8978 21.2551 44.0586 20.9644C44.2142 20.6789 44.4456 20.4432 44.7266 20.2839C45.011 20.1211 45.3314 20.0397 45.6877 20.0396C46.3308 20.0396 46.8182 20.2376 47.1498 20.6336V18.2051H47.8994V23.7613H47.1721V23.235C46.9741 23.4556 46.7577 23.6172 46.5227 23.7199C46.2876 23.8226 46.0093 23.874 45.6877 23.874C45.3314 23.874 45.0111 23.7951 44.7266 23.6372ZM46.6637 23.0282C46.8918 22.868 47.0624 22.6372 47.1498 22.3703V21.5583C47.0699 21.2887 46.9009 21.055 46.6711 20.8967C46.436 20.7313 46.1651 20.6486 45.8584 20.6486C45.629 20.6453 45.4027 20.7023 45.2016 20.814C45.008 20.9224 44.8485 21.084 44.7414 21.2802C44.6301 21.4807 44.5744 21.7087 44.5744 21.9643C44.5744 22.22 44.6301 22.448 44.7414 22.6485C44.8478 22.8442 45.0076 23.0047 45.2016 23.1109C45.4034 23.2203 45.6295 23.276 45.8584 23.2726C46.1651 23.2726 46.4336 23.1911 46.6637 23.0282Z" fill="#000B20"/>
<path d="M49.4246 23.7948C49.1352 23.7422 48.8989 23.6708 48.7158 23.5805V22.8888C49.1968 23.1157 49.7216 23.2313 50.2521 23.2272C51.024 23.2272 51.41 22.964 51.41 22.4377C51.41 22.2573 51.3679 22.1119 51.2838 22.0016C51.1996 21.8914 51.0784 21.7949 50.9201 21.7122C50.7617 21.6295 50.5044 21.5154 50.1482 21.3701C49.6584 21.1697 49.3046 20.9491 49.0869 20.7085C48.8691 20.4679 48.7603 20.1646 48.7603 19.7987C48.7562 19.5367 48.8342 19.28 48.983 19.0657C49.1315 18.8527 49.3393 18.6873 49.6064 18.5694C49.8736 18.4517 50.1804 18.3928 50.5268 18.3927C50.7831 18.3904 51.0391 18.4131 51.2912 18.4604C51.5215 18.5064 51.7457 18.5796 51.9592 18.6785V19.3401C51.5287 19.1446 51.0933 19.0468 50.6529 19.0468C50.2967 19.0468 50.0246 19.112 49.8365 19.2423C49.6484 19.3727 49.5544 19.5582 49.5545 19.7987C49.5545 19.9641 49.5953 20.1032 49.677 20.216C49.7586 20.3288 49.8798 20.429 50.0406 20.5167C50.2014 20.6045 50.4401 20.7135 50.7568 20.8438C51.1081 20.9892 51.3852 21.1271 51.5881 21.2573C51.7909 21.3877 51.9455 21.5469 52.0519 21.7347C52.1583 21.9227 52.2115 22.157 52.2115 22.4377C52.2115 22.8939 52.0507 23.2472 51.7291 23.4978C51.4074 23.7485 50.9324 23.8738 50.3041 23.8738C50.0092 23.8739 49.7149 23.8475 49.4246 23.7948Z" fill="#000B20"/>
<path d="M53.7408 23.6479C53.4428 23.5057 53.1934 23.2766 53.0246 22.9901C52.8539 22.7019 52.7686 22.3598 52.7686 21.9638C52.7686 21.5679 52.8539 21.2258 53.0246 20.9375C53.1953 20.6493 53.4456 20.418 53.7445 20.2721C54.0537 20.1168 54.4087 20.0391 54.8096 20.0391C55.3538 20.0391 55.7892 20.1468 56.1158 20.3623V20.9864C55.7941 20.7608 55.3835 20.6481 54.8838 20.6481C54.478 20.6481 54.1502 20.7596 53.9004 20.9826C53.6505 21.2057 53.5256 21.5328 53.5256 21.9638C53.5256 22.3949 53.6493 22.7207 53.8967 22.9412C54.144 23.1618 54.4681 23.2721 54.8689 23.272C55.3687 23.272 55.7991 23.1517 56.1604 22.9111V23.5277C55.981 23.6507 55.7811 23.7399 55.5703 23.7908C55.3501 23.8459 55.0916 23.8735 54.7947 23.8735C54.3988 23.8735 54.0475 23.7983 53.7408 23.6479Z" fill="#000B20"/>
<path d="M56.9775 20.1533H57.7049V20.7999C57.8533 20.5794 58.0624 20.4165 58.332 20.3112C58.6017 20.2059 58.9146 20.1533 59.2709 20.1533V20.7473C58.8898 20.7473 58.5633 20.8099 58.2912 20.9352C58.019 21.0606 57.831 21.2586 57.7271 21.5292V23.7622H56.9775V20.1533Z" fill="#000B20"/>
<path d="M60.1277 23.3735C59.7541 23.0402 59.5673 22.5703 59.5674 21.9638C59.5674 21.3724 59.7344 20.9038 60.0684 20.5578C60.4024 20.212 60.8786 20.0391 61.4971 20.0391C61.9077 20.0391 62.2565 20.118 62.5436 20.2759C62.8199 20.4231 63.0461 20.651 63.193 20.93C63.3389 21.2082 63.4119 21.5252 63.4119 21.8811V22.257H60.2799C60.3046 22.5979 60.4468 22.8523 60.7066 23.0202C60.9664 23.1882 61.319 23.2721 61.7643 23.272C61.9958 23.2717 62.2268 23.2503 62.4545 23.2081C62.6647 23.1718 62.871 23.1151 63.0705 23.0389V23.6479C62.9121 23.7132 62.703 23.767 62.4434 23.8096C62.1894 23.8517 61.9325 23.8731 61.6752 23.8735C61.0171 23.8735 60.5013 23.7069 60.1277 23.3735ZM62.7068 21.7232C62.6969 21.3824 62.5868 21.118 62.3766 20.93C62.1662 20.742 61.8681 20.6481 61.4822 20.6481C61.1061 20.6481 60.8142 20.7458 60.6065 20.9413C60.3986 21.1368 60.2898 21.3974 60.2799 21.7232H62.7068Z" fill="#000B20"/>
<path d="M64.6414 23.3735C64.2678 23.0402 64.081 22.5703 64.0811 21.9638C64.0811 21.3724 64.248 20.9038 64.582 20.5578C64.916 20.212 65.3923 20.0391 66.0108 20.0391C66.4214 20.0391 66.7702 20.118 67.0572 20.2759C67.3335 20.4231 67.5598 20.651 67.7066 20.93C67.8525 21.2082 67.9255 21.5252 67.9256 21.8811V22.257H64.7936C64.8183 22.5979 64.9605 22.8523 65.2203 23.0202C65.4801 23.1882 65.8326 23.2721 66.2779 23.272C66.5094 23.2717 66.7404 23.2503 66.9682 23.2081C67.1784 23.1718 67.3847 23.1151 67.5842 23.0389V23.6479C67.4258 23.7132 67.2167 23.767 66.957 23.8096C66.7031 23.8517 66.4462 23.8731 66.1889 23.8735C65.5308 23.8735 65.0149 23.7069 64.6414 23.3735ZM67.2205 21.7232C67.2105 21.3824 67.1004 21.118 66.8902 20.93C66.6799 20.742 66.3818 20.6481 65.9959 20.6481C65.6198 20.6481 65.3279 20.7458 65.1201 20.9413C64.9123 21.1368 64.8035 21.3974 64.7936 21.7232H67.2205Z" fill="#000B20"/>
<path d="M68.7412 20.1519H69.4685V20.6706C69.6308 20.4597 69.8443 20.2952 70.0883 20.1932C70.3317 20.0908 70.5928 20.0384 70.8564 20.0391C71.3314 20.0391 71.6852 20.1669 71.9178 20.4225C72.1503 20.6781 72.2666 21.0215 72.2666 21.4526V23.7607H71.517V21.5277C71.517 20.9413 71.2399 20.6481 70.6857 20.6481C70.4538 20.6467 70.2252 20.7049 70.0215 20.8172C69.8161 20.93 69.6392 21.1017 69.4908 21.3323V23.7607H68.7412V20.1519Z" fill="#000B20"/>
<path d="M73.6063 23.3735C73.2326 23.0402 73.0458 22.5703 73.0459 21.9638C73.0459 21.3724 73.2129 20.9038 73.5469 20.5578C73.8809 20.212 74.3571 20.0391 74.9756 20.0391C75.3862 20.0391 75.7351 20.118 76.0221 20.2759C76.2984 20.4231 76.5246 20.651 76.6715 20.93C76.8174 21.2082 76.8904 21.5252 76.8904 21.8811V22.257H73.7584C73.7831 22.5979 73.9254 22.8523 74.1852 23.0202C74.4449 23.1882 74.7975 23.2721 75.2428 23.272C75.4743 23.2717 75.7053 23.2503 75.933 23.2081C76.1432 23.1718 76.3495 23.1151 76.549 23.0389V23.6479C76.3906 23.7132 76.1816 23.767 75.9219 23.8096C75.6679 23.8517 75.4111 23.8731 75.1537 23.8735C74.4956 23.8735 73.9798 23.7069 73.6063 23.3735ZM76.1854 21.7232C76.1754 21.3824 76.0653 21.118 75.8551 20.93C75.6447 20.742 75.3466 20.6481 74.9608 20.6481C74.5847 20.6481 74.2927 20.7458 74.085 20.9413C73.8772 21.1368 73.7683 21.3974 73.7584 21.7232H76.1854Z" fill="#000B20"/>
<path d="M77.707 20.1533H78.4344V20.7999C78.5828 20.5794 78.7919 20.4165 79.0615 20.3112C79.3311 20.2059 79.6441 20.1533 80.0004 20.1533V20.7473C79.6193 20.7473 79.2928 20.8099 79.0207 20.9352C78.7485 21.0606 78.5605 21.2586 78.4566 21.5292V23.7622H77.707V20.1533Z" fill="#000B20"/>
<path d="M27.5527 0.291908H31.0648L33.3225 8.38486L35.503 0.291908H37.9345L39.9799 8.40441L42.2184 0.291908H45.7304L42.0061 13.9561H38.8607L36.6416 6.01953L34.4417 13.9561H31.277L27.5527 0.291908Z" fill="url(#paint1_linear)"/>
<path d="M49.8197 14.0063C48.9833 13.8435 48.295 13.6187 47.7549 13.3319V10.2237C48.4427 10.5861 49.1718 10.8618 49.9258 11.0447C50.6784 11.2274 51.3956 11.3186 52.0774 11.3184C52.7075 11.3184 53.1835 11.2207 53.5054 11.0252C53.8268 10.8297 53.9876 10.5495 53.9878 10.1846C53.9918 9.92217 53.8989 9.66767 53.7273 9.47109C53.5536 9.2692 53.2995 9.08349 52.965 8.91397C52.6304 8.74476 52.1093 8.51018 51.402 8.21023C50.154 7.67602 49.2471 7.08306 48.6811 6.43135C48.1149 5.77984 47.8319 4.97836 47.8321 4.02692C47.8321 3.245 48.0476 2.54778 48.4785 1.93527C48.9094 1.32286 49.5108 0.847184 50.2828 0.508252C51.0546 0.169511 51.9423 9.38227e-05 52.9457 0C53.7689 0 54.5022 0.0651574 55.1456 0.195472C55.7864 0.325153 56.4087 0.535291 56.9981 0.821021V3.85099C55.8659 3.25172 54.7274 2.95198 53.5825 2.95177C52.965 2.95177 52.473 3.05277 52.1063 3.25477C51.7397 3.45697 51.5564 3.74694 51.5564 4.12466C51.5564 4.5028 51.7429 4.80906 52.116 5.04342C52.489 5.278 53.1772 5.59729 54.1807 6.00128C55.094 6.37943 55.8048 6.75084 56.313 7.11553C56.8211 7.48053 57.191 7.90408 57.4226 8.38617C57.6542 8.86846 57.77 9.48097 57.77 10.2237C57.77 11.4879 57.3165 12.4751 56.4095 13.1852C55.5026 13.8957 54.1486 14.2508 52.3475 14.2506C51.4992 14.2506 50.6527 14.1688 49.8197 14.0063Z" fill="url(#paint2_linear)"/>
<path d="M11.2029 4.93458C10.2185 5.04322 9.44277 5.26816 8.60534 5.6878C7.7995 6.09162 7.28309 6.47525 6.62038 7.16239C5.88799 7.92178 5.37732 8.73427 5.0214 9.70641C4.80401 10.3002 4.6307 11.0828 4.5988 11.6148C4.56866 12.1173 4.58642 12.9352 4.63476 13.2704C4.70124 13.7228 4.80726 14.1682 4.95158 14.6015C5.3105 15.702 5.92709 16.698 6.74866 17.5046C7.85617 18.6017 9.18241 19.2659 10.797 19.5322C11.006 19.5667 11.0775 19.5706 11.6235 19.5779C12.2966 19.5868 12.5898 19.5725 12.9297 19.5142C14.2861 19.2814 15.5154 18.7102 16.5176 17.847C16.7331 17.6614 17.1783 17.2066 17.352 16.9945C17.9646 16.2465 18.396 15.463 18.6941 14.5567C18.9352 13.8237 19.0253 13.2764 19.0425 12.4404C19.0625 11.4697 18.9774 10.846 18.712 10.0175C18.4561 9.21885 18.1103 8.53173 17.6561 7.91917C17.0652 7.12231 16.3464 6.45749 15.5406 5.96254C14.6474 5.41396 13.5097 5.03291 12.5312 4.95461C12.332 4.93867 11.3061 4.9232 11.2029 4.93458ZM12.4146 5.18767C12.4653 5.20047 12.5108 5.22886 12.5448 5.26895C12.6124 5.34472 12.6127 5.3886 12.546 5.46787C12.517 5.50227 12.4964 5.53575 12.499 5.54414C12.5062 5.56741 12.5829 5.58385 12.6714 5.58113C12.7984 5.57723 12.8043 5.57904 12.8043 5.62192C12.8031 5.65693 12.7929 5.69104 12.7748 5.7209C12.7567 5.75075 12.7313 5.77532 12.701 5.7922C12.6388 5.82444 12.6071 5.8642 12.5468 5.98535C12.4837 6.10934 12.4382 6.24177 12.4118 6.37869C12.4042 6.43009 12.3903 6.48033 12.3705 6.52825C12.3496 6.56185 12.3276 6.65987 12.3093 6.80195C12.2986 6.88421 12.2552 6.99554 12.2171 7.03825C12.1962 7.05844 12.1719 7.07465 12.1453 7.08611C12.1191 7.09749 12.0966 7.11616 12.0805 7.13996C12.0528 7.19198 12.0594 7.29101 12.0944 7.34934C12.1643 7.46575 12.1195 7.58224 11.9409 7.74773C11.8169 7.86262 11.6739 7.93793 11.5527 7.95215C11.4967 7.95499 11.443 7.97623 11.3999 8.01264C11.3369 8.05743 11.2711 8.09801 11.2029 8.13414C10.9697 8.25949 10.8266 8.37683 10.8266 8.44263C10.8266 8.45412 10.8013 8.49797 10.7705 8.53984C10.7273 8.60176 10.6878 8.66618 10.6521 8.73278C10.558 8.90926 10.558 8.90926 10.5048 8.88189C10.4389 8.84795 10.3561 8.74175 10.3325 8.66099C10.2992 8.54685 10.2765 8.30204 10.2837 8.13603C10.2921 7.9431 10.3214 7.87461 10.4588 7.72773C10.4958 7.69082 10.5299 7.65107 10.5609 7.60883C10.5524 7.58816 10.5412 7.56879 10.5274 7.55125C10.4784 7.48118 10.4842 7.37028 10.5444 7.22521C10.6182 7.0476 10.6352 6.96796 10.6449 6.75558L10.6539 6.55966L10.6023 6.50283C10.5458 6.4405 10.5122 6.43353 10.3779 6.45621L10.3056 6.46843L10.3144 6.35925C10.3207 6.28148 10.3322 6.23888 10.3542 6.21119C10.4015 6.14288 10.4372 6.06706 10.4598 5.98684C10.4821 5.9135 10.4694 5.9201 10.7528 5.83483C10.8149 5.81614 10.8216 5.80887 10.8561 5.72212C10.8701 5.68325 10.8884 5.64612 10.9107 5.61145C10.9313 5.59051 10.9361 5.55312 10.9181 5.55312C10.8793 5.57018 10.8421 5.59044 10.8066 5.61369C10.7508 5.64753 10.6917 5.67559 10.6303 5.69744C10.5647 5.71725 10.5309 5.74381 10.3978 5.87991C10.3116 5.96815 10.2145 6.0612 10.1801 6.08854C10.1339 6.12951 10.093 6.17624 10.0583 6.22764C9.97564 6.35177 9.94677 6.36264 9.85837 6.30291C9.8298 6.28142 9.79752 6.26552 9.76318 6.25605C9.75448 6.25532 9.74601 6.25282 9.73828 6.24871C9.73054 6.2446 9.7237 6.23896 9.71816 6.23212C9.70344 6.21589 9.68527 6.20327 9.66503 6.1952C9.59672 6.16905 9.63551 6.09546 9.79048 5.95721C9.83293 5.92133 9.87334 5.88304 9.9115 5.84252C9.9115 5.83879 9.87461 5.84046 9.82885 5.84626C9.7462 5.85673 9.7462 5.85673 9.75715 5.82083C9.78179 5.74007 9.9289 5.45139 9.96021 5.42237C10.0047 5.3811 10.1019 5.35089 10.3558 5.29937C10.7764 5.21401 11.2318 5.15675 11.3284 5.17708C11.3859 5.18921 11.4054 5.2351 11.3667 5.26771C11.3227 5.30491 11.3416 5.31779 11.4287 5.30981C11.5247 5.30102 11.5645 5.31537 11.5645 5.35869C11.5645 5.40805 11.593 5.40805 11.6199 5.35869C11.6679 5.27045 11.6783 5.26008 11.6988 5.28032C11.7286 5.30977 11.7579 5.30415 11.8833 5.24482C11.9468 5.21481 12.0268 5.18067 12.0589 5.1699C12.1276 5.1469 12.2995 5.1555 12.4146 5.18768L12.4146 5.18767ZM9.66134 5.56433C9.66633 5.60435 9.68363 5.64177 9.71079 5.67127C9.74071 5.70268 9.74942 5.72331 9.74235 5.74605C9.72995 5.78593 9.66208 5.83519 9.60304 5.84715C9.53543 5.86086 9.52821 5.82233 9.58521 5.75203C9.67161 5.64548 9.62814 5.64231 9.51892 5.7472C9.47612 5.78831 9.43334 5.82233 9.42446 5.82233C9.39062 5.82233 9.42789 5.62491 9.47189 5.57106C9.49634 5.54115 9.60157 5.49228 9.63109 5.49713C9.64515 5.49944 9.65619 5.52395 9.66134 5.56433H9.66134ZM14.14 5.81565C14.1677 5.82972 14.1912 5.85115 14.2078 5.87766C14.2273 5.91426 14.2256 5.91884 14.1783 5.95544C14.1511 5.97654 14.1045 6.01552 14.0765 6.04069L14.0248 6.08705L14.0861 6.20296C14.1112 6.24626 14.1317 6.29213 14.1473 6.33981C14.1473 6.37199 14.0676 6.36493 14.0219 6.3287C13.976 6.29236 13.9684 6.29793 13.9332 6.39365C13.8997 6.48488 13.8807 6.50069 13.8315 6.47836C13.8023 6.4651 13.7931 6.44973 13.7931 6.41384C13.7937 6.39795 13.79 6.38221 13.7825 6.36826C13.7749 6.35432 13.7638 6.34269 13.7503 6.3346C13.6977 6.2951 13.6416 6.15435 13.6481 6.07808C13.6529 6.0219 13.6544 6.02095 13.7813 5.99522C13.8148 5.98414 13.8426 5.96019 13.8588 5.92852C13.8757 5.89945 13.8999 5.87545 13.9289 5.85897C13.9537 5.84928 13.9771 5.8361 13.9983 5.81983C14.0417 5.78561 14.0765 5.78458 14.14 5.81566L14.14 5.81565ZM8.9301 5.87168C8.90136 5.96441 8.90224 5.97189 8.94184 5.97189C8.97834 5.96735 9.01379 5.95648 9.04663 5.93973C9.1069 5.91055 9.12043 5.90924 9.19274 5.92552C9.22955 5.93264 9.26511 5.94524 9.29827 5.96292C9.32229 5.98099 9.32022 5.98834 9.26875 6.06761C9.22186 6.13983 9.21202 6.16931 9.20434 6.26054C9.19087 6.42057 9.16981 6.44157 9.11288 6.35177C9.02849 6.21866 9.01486 6.19059 8.99813 6.11547C8.97316 6.0033 8.94773 5.98585 8.9131 6.05714C8.87858 6.12818 8.82525 6.15906 8.68504 6.18917C8.51826 6.22498 8.40748 6.22483 8.38168 6.18875C8.33213 6.11947 8.40166 6.03545 8.58172 5.94703C8.67028 5.90354 8.69538 5.89678 8.72267 5.90907C8.74984 5.92131 8.76769 5.91614 8.82082 5.88064C8.90199 5.82642 8.94522 5.82287 8.9301 5.87168ZM9.53979 6.17828C9.545 6.2673 9.55582 6.27699 9.66798 6.29323C9.76687 6.30755 9.79343 6.32374 9.79343 6.36972C9.79343 6.54283 9.59124 6.62229 9.41561 6.5182C9.33296 6.46922 9.30639 6.4291 9.30639 6.35327C9.30639 6.25007 9.43309 6.08433 9.50416 6.09456C9.53047 6.09834 9.53585 6.11098 9.53979 6.17828ZM8.15519 6.25605C8.19258 6.27599 8.19209 6.30379 8.15371 6.33943C8.13365 6.35942 8.1165 6.38221 8.10279 6.40711C8.08594 6.44001 8.08594 6.45037 8.10279 6.47441C8.11957 6.49834 8.11922 6.50684 8.10058 6.52825C8.08886 6.54171 8.08329 6.56142 8.08874 6.57013C8.10866 6.60197 8.16995 6.58242 8.29983 6.50278C8.4548 6.40776 8.52416 6.38558 8.52416 6.43104C8.52416 6.44738 8.47282 6.54171 8.41101 6.63893C8.20372 6.96497 8.18314 7.00645 8.16612 7.13248C8.15238 7.23418 8.14672 7.24772 8.11239 7.2611C8.09172 7.26915 8.05903 7.2833 8.04154 7.29176C8.01779 7.30325 7.99284 7.30079 7.94856 7.28259C7.87182 7.25104 7.842 7.25177 7.7995 7.28622L7.76408 7.31494L7.79362 7.37177C7.80905 7.40368 7.83267 7.4308 7.86201 7.45027C7.89135 7.46975 7.92533 7.48086 7.96037 7.48245C8.02843 7.48245 8.05913 7.46301 8.17058 7.34934C8.22337 7.2955 8.30794 7.21324 8.35665 7.16837C8.43281 7.09821 8.45082 7.07116 8.47915 6.98441C8.49468 6.93416 8.51703 6.88634 8.54556 6.84233C8.573 6.80689 8.59848 6.76994 8.62189 6.73166C8.6751 6.64491 8.82191 6.46766 8.84148 6.46654C8.871 6.46484 9.17356 6.56059 9.17356 6.57162C9.17356 6.59339 9.0363 6.68978 9.00531 6.68978C8.95654 6.68978 8.87229 6.75558 8.82148 6.83335C8.78259 6.90085 8.74906 6.97136 8.72119 7.04424C8.68624 7.13397 8.65334 7.19477 8.6319 7.20925C8.58845 7.23861 8.58945 7.27755 8.6357 7.35682C8.67148 7.41814 8.67215 7.4237 8.64998 7.47647C8.62359 7.53928 8.62042 7.57218 8.64076 7.57218C8.66226 7.57218 8.83417 7.40767 8.88143 7.34186C8.93513 7.26708 8.93354 7.24809 8.871 7.21739C8.80996 7.18741 8.80817 7.17435 8.8561 7.10855C8.87474 7.08507 8.88745 7.05735 8.89314 7.02778C8.89314 6.92901 9.04958 6.75196 9.21636 6.662C9.31819 6.60706 9.37887 6.6011 9.39017 6.64491C9.39652 6.6695 9.4097 6.67482 9.46431 6.67482C9.54106 6.67482 9.62482 6.71047 9.64707 6.75259C9.65657 6.77058 9.65829 6.8356 9.65175 6.92982C9.64147 7.07789 9.64162 7.07882 9.68127 7.11602C9.71078 7.14372 9.71863 7.16272 9.71152 7.18931C9.7039 7.21781 9.71226 7.23235 9.75211 7.25993C9.81557 7.30385 9.82295 7.31534 9.82295 7.37028C9.82352 7.44058 9.79972 7.50886 9.7557 7.56321C9.70903 7.61406 9.70882 7.66161 9.75506 7.70587C9.7861 7.73557 9.79161 7.7539 9.78974 7.8212C9.78817 7.87803 9.7948 7.90923 9.81262 7.92888C9.82612 7.94359 9.83487 7.96211 9.83771 7.98198C9.83771 8.01638 9.69173 8.17043 9.65913 8.17042C9.64528 8.17042 9.62626 8.15098 9.61668 8.12705C9.59156 8.06424 9.54674 8.02557 9.52482 8.04778C9.50561 8.06725 9.50473 8.11808 9.52104 8.26465L9.5322 8.36485L9.47612 8.41829C9.42298 8.46891 9.31212 8.52937 9.27244 8.52937C9.26287 8.52937 9.24026 8.50395 9.22324 8.47403C9.17813 8.39477 9.04673 8.24922 8.99645 8.22281C8.96926 8.20932 8.93962 8.20167 8.90937 8.20034C8.85624 8.20034 8.83777 8.15846 8.8632 8.09564C8.88444 8.04317 8.91823 8.03 8.99645 8.04369C9.05241 8.05349 9.05692 8.05078 9.15867 7.94608C9.31857 7.78157 9.34184 7.73993 9.33252 7.635C9.32268 7.52432 9.27137 7.4033 9.2134 7.35405C9.19991 7.34077 9.18355 7.33086 9.16561 7.32511C9.14768 7.31936 9.12867 7.31793 9.11009 7.32092C9.0446 7.3259 9.06703 7.28204 8.90511 7.72174L8.82524 7.93861L8.71455 7.94791C8.54778 7.96192 8.54348 7.96716 8.61321 8.07172C8.70295 8.20627 8.68946 8.23909 8.53597 8.25966C8.48431 8.26659 8.42167 8.27678 8.39502 8.2826C8.35074 8.29226 8.34705 8.29002 8.34705 8.25343C8.34705 8.23163 8.37462 8.1465 8.4083 8.06424C8.44199 7.98198 8.46623 7.91142 8.46217 7.90745C8.44816 7.89372 8.23488 8.04749 8.11829 8.15539C8.05335 8.21548 7.94708 8.30772 7.88215 8.36037C7.82188 8.40846 7.76562 8.46149 7.71391 8.5189C7.63487 8.61788 7.57677 8.7567 7.56805 8.86738L7.5604 8.96459L7.75965 9.16949L7.95889 9.37439L7.93675 9.52769C7.91969 9.64584 7.91845 9.68956 7.93136 9.71838C7.96689 9.79774 8.02619 9.7438 8.09579 9.56882C8.13979 9.4582 8.15519 9.43772 8.29982 9.29741C8.47546 9.12704 8.48339 9.10553 8.41261 8.99151L8.37362 8.9287L8.44741 8.86036C8.53173 8.78229 8.5519 8.74623 8.59744 8.59219C8.63988 8.44861 8.6697 8.41853 8.75735 8.43083C8.84886 8.44368 8.91021 8.48301 8.94141 8.54881C8.94745 8.56526 8.95738 8.57996 8.97032 8.59163C8.98325 8.6033 8.99881 8.61159 9.01564 8.61578C9.07856 8.63274 9.08489 8.68192 9.03666 8.77914C8.98917 8.87486 8.97767 8.92843 8.99682 8.96459C9.0368 9.04004 9.18699 8.95861 9.2644 8.81952C9.28936 8.77465 9.31557 8.74275 9.32336 8.74773C9.3315 8.75294 9.33565 8.8614 9.33325 9.00647C9.3288 9.27568 9.33382 9.2985 9.42041 9.4028C9.47904 9.47344 9.48626 9.50899 9.49899 9.79017C9.51118 10.0594 9.52052 10.0998 9.57057 10.0998C9.61285 10.0998 9.63108 10.1327 9.63108 10.2089C9.63108 10.3914 9.51673 10.4524 9.38756 10.3389C9.33295 10.2909 9.30841 10.2792 9.26211 10.2792C9.17469 10.2792 9.18392 10.2493 9.32209 10.0848C9.39117 10.0025 9.45398 9.90782 9.45398 9.88589C9.45398 9.86566 9.37723 9.89202 9.25473 9.95433C9.08795 10.0392 9.0697 10.0427 8.94184 10.0157C8.83557 9.99328 8.73079 9.99713 8.73079 10.0235C8.73079 10.0309 8.76104 10.0561 8.79794 10.0796C8.8555 10.1161 8.86381 10.1275 8.85608 10.1596C8.8359 10.2433 8.84051 10.2551 8.91232 10.3028C9.01268 10.3696 9.07024 10.428 9.07024 10.4632C9.07024 10.4991 9.02923 10.5484 8.9994 10.5484C8.94386 10.5643 8.88959 10.5845 8.83705 10.6087C8.67765 10.6764 8.67564 10.6768 8.61714 10.6459C8.56844 10.6201 8.44699 10.6165 8.40461 10.6394C8.38932 10.6477 8.3469 10.7145 8.31129 10.7862C8.24304 10.9238 8.22873 10.9373 8.15076 10.9373C8.11549 10.9373 8.08944 10.9537 8.0371 11.0091C7.96392 11.0864 7.83736 11.3022 7.81604 11.386C7.76769 11.5759 7.77634 11.5623 7.64157 11.6597C7.56455 11.716 7.4911 11.7771 7.42166 11.8427C7.3017 11.9612 7.29361 12.0022 7.35747 12.1682C7.4363 12.3731 7.44829 12.5077 7.38772 12.5077C7.34418 12.5077 7.25735 12.3895 7.21407 12.2714C7.15051 12.0979 7.04216 12.0078 6.89625 12.0071C6.81507 12.0067 6.8082 12.0096 6.76341 12.0642L6.71619 12.1218L6.52432 12.1203C6.35311 12.119 6.3253 12.1225 6.26604 12.1528C6.18773 12.1928 6.14829 12.2624 6.10309 12.4404C6.04612 12.6647 6.06516 12.8976 6.15041 13.0192C6.2144 13.1104 6.4197 13.1699 6.50661 13.1224C6.52748 13.111 6.56526 13.0626 6.58945 13.0162C6.6464 12.907 6.66842 12.8883 6.77227 12.8611L6.85935 12.8382L6.85418 12.9399C6.85282 13.0082 6.83454 13.0751 6.801 13.1343C6.74447 13.2435 6.7407 13.293 6.78703 13.3175C6.80496 13.327 6.88887 13.3421 6.97447 13.3512L7.12944 13.3677L7.13341 13.435C7.14259 13.5905 7.16719 13.7513 7.18809 13.7924C7.22003 13.8553 7.2785 13.8707 7.52055 13.8799L7.73455 13.8881L7.83787 13.776C7.87844 13.7295 7.92288 13.6866 7.9707 13.6478C8.02273 13.6197 8.24669 13.69 8.32049 13.7577L8.37952 13.8118L8.50645 13.8017C8.66437 13.789 8.73057 13.7724 8.78097 13.7328L8.81934 13.7027L8.8341 13.7416C8.84236 13.7639 8.84733 13.7873 8.84886 13.8111C8.84886 13.8291 8.89018 13.8834 8.94922 13.9429C9.06086 14.0554 9.19422 14.1313 9.31524 14.151C9.35912 14.1586 9.40149 14.1734 9.44069 14.1948C9.5413 14.2638 9.62186 14.3588 9.67404 14.4699L9.71816 14.5701L9.8997 14.6599C10.0989 14.7584 10.2411 14.8109 10.3085 14.8109C10.4753 14.8109 10.8092 15.0134 10.8486 15.1385C10.8535 15.1541 10.8433 15.2058 10.8257 15.2536C10.76 15.4321 10.7388 15.5497 10.7092 15.8982C10.6926 16.0941 10.6721 16.2784 10.6638 16.308C10.6444 16.3769 10.6111 16.4053 10.5343 16.4185C10.4853 16.4298 10.4398 16.4536 10.4022 16.4875C10.3639 16.5194 10.3235 16.5458 10.313 16.5458C10.2895 16.5458 10.2362 16.6341 10.2362 16.6729C10.2384 16.699 10.2441 16.7247 10.2532 16.7492C10.2768 16.8154 10.2448 17.0319 10.1976 17.1261C10.1712 17.1702 10.1621 17.2228 10.172 17.2734L10.1816 17.3505L10.1167 17.3983C10.0812 17.4244 10.042 17.4516 10.0303 17.4581C10.0121 17.4683 10.0129 17.4821 10.036 17.5509C10.0801 17.6825 10.038 17.803 9.94102 17.8229C9.8997 17.8314 9.89675 17.8365 9.89675 17.8993C9.89675 17.9622 9.89424 17.9666 9.85911 17.9666C9.84972 17.9662 9.84039 17.9683 9.83209 17.9728C9.82379 17.9773 9.81685 17.9839 9.81198 17.9921C9.80313 18.0158 9.82443 18.039 9.91446 18.1037C9.94541 18.126 9.94678 18.1327 9.92995 18.179C9.91537 18.2323 9.90598 18.2869 9.90191 18.342L9.89232 18.4542L9.95873 18.5305C10.019 18.5997 10.0274 18.6187 10.0489 18.7354C10.076 18.882 10.0799 18.8909 10.1818 19.039C10.2229 19.0988 10.2522 19.1529 10.2465 19.1586C10.2322 19.1731 10.0739 19.1389 9.99416 19.1041C9.94157 19.0762 9.89532 19.0375 9.85837 18.9904C9.81813 18.9425 9.75496 18.8699 9.71595 18.8266C9.67685 18.7832 9.64584 18.7426 9.64584 18.7346C9.62272 18.6882 9.59556 18.6439 9.56467 18.6023C9.4948 18.5006 9.48349 18.4746 9.48349 18.4161C9.48349 18.3524 9.47907 18.3447 9.41413 18.2958C9.33 18.2325 9.28709 18.1615 9.28386 18.0803C9.28035 17.992 9.26718 17.9577 9.18412 17.8201C9.11634 17.7078 9.10916 17.687 9.09907 17.5733C9.08854 17.4546 9.05771 17.3534 8.97649 17.171C8.91282 17.013 8.86046 16.8505 8.81981 16.6849C8.71908 16.2781 8.61745 16.1188 8.35443 15.9552C8.09615 15.7947 8.0006 15.711 7.86078 15.5228C7.8017 15.4439 7.73786 15.3687 7.66962 15.2977L7.57959 15.2087V15.0532C7.58306 14.9658 7.57259 14.8785 7.54859 14.7945L7.5176 14.6913L7.55763 14.621C7.68114 14.4041 7.68874 14.3859 7.6877 14.3099C7.68644 14.2172 7.64513 14.1309 7.55806 14.0392C7.49275 13.9704 7.46151 13.9641 7.46151 14.0197C7.46151 14.074 7.41724 14.0696 7.27998 14.0018C7.1073 13.9164 6.99727 13.8337 6.91755 13.7296C6.87985 13.681 6.83596 13.6377 6.78703 13.6008C6.69006 13.5351 6.45495 13.4457 6.19519 13.3759C5.93691 13.3064 5.78781 13.2476 5.66239 13.1659C5.56203 13.1005 5.53825 13.0685 5.51424 12.9668C5.49052 12.8664 5.43946 12.7679 5.23192 12.4224C4.94138 11.9388 4.91003 11.9438 5.10177 12.4434C5.21543 12.7395 5.21715 12.7979 5.10839 12.6692C5.0376 12.5855 4.9139 12.3355 4.90415 12.2564C4.89612 12.21 4.88185 12.165 4.86172 12.1226C4.8291 12.0557 4.82704 12.0351 4.82704 11.7748C4.82704 11.4681 4.85373 11.2499 4.94669 10.7967C5.19151 9.60322 5.75418 8.4632 6.53449 7.57966C6.75244 7.33289 7.18579 6.89843 7.21356 6.89886C7.22403 6.89903 7.24866 6.93655 7.26775 6.98142C7.30849 7.07714 7.37262 7.13846 7.43199 7.13846C7.48119 7.13846 7.49103 7.11752 7.49103 7.01283C7.49103 6.94253 7.49657 6.92975 7.54859 6.87988C7.58161 6.84757 7.60663 6.80783 7.62163 6.76388C7.63663 6.71994 7.64118 6.67302 7.63491 6.62696C7.6276 6.57162 7.63142 6.56131 7.67404 6.52126C7.75079 6.44914 8.06533 6.24109 8.09763 6.24109C8.11762 6.24207 8.1372 6.24716 8.15519 6.25605L8.15519 6.25605ZM15.8195 6.42281C15.8303 6.4408 15.8246 6.47142 15.7986 6.53573C15.7315 6.70174 15.7646 6.95353 15.8699 7.07864C15.9366 7.15776 16.0719 7.22293 16.2431 7.25837C16.4852 7.30846 16.5189 7.29511 16.4557 7.17436C16.4345 7.13398 16.4038 7.07555 16.3874 7.04424C16.3464 6.96647 16.3336 6.85429 16.3656 6.85429C16.4055 6.85429 16.7549 7.20875 16.8315 7.32691C16.8887 7.41515 16.904 7.4304 16.9161 7.41141C16.9293 7.39069 16.9343 7.39197 16.9633 7.42337C16.98 7.44005 16.9913 7.46142 16.9958 7.48469C16.9968 7.49289 17.0001 7.50063 17.0053 7.50694C17.0106 7.51326 17.0175 7.51787 17.0253 7.52021C17.0848 7.53904 17.4337 7.976 17.6461 8.29755C17.8936 8.67249 18.1883 9.23679 18.3371 9.62116C18.5732 10.231 18.7043 10.7638 18.7898 11.4608C18.8414 11.881 18.8322 12.8342 18.7732 13.1792C18.7546 13.2884 18.7256 13.3808 18.7234 13.3377C18.7179 13.2251 18.6789 13.079 18.602 12.8831C18.4964 12.6139 18.4585 12.5631 18.3507 12.5465C18.2857 12.5366 18.2821 12.5333 18.2669 12.4718C18.2457 12.3859 18.1264 12.2743 17.9743 12.1982L17.8607 12.1413L17.6238 12.136C17.4216 12.1316 17.3801 12.1266 17.3404 12.1024C17.3098 12.0836 17.2467 12.0692 17.1552 12.06C16.9825 12.0425 16.896 12.0121 16.8158 11.9406C16.7242 11.8591 16.6876 11.8415 16.676 11.8735C16.6608 11.915 16.7169 11.9986 16.8276 12.0996C16.8866 12.1535 16.9378 12.2126 16.9427 12.2325C16.9499 12.2616 16.9611 12.2684 17.0025 12.2684C17.0457 12.2648 17.0883 12.2548 17.1286 12.2387C17.2054 12.2084 17.2719 12.2011 17.2999 12.22C17.3208 12.2413 17.3391 12.2651 17.3545 12.2908C17.3827 12.3314 17.4171 12.3672 17.4563 12.397C17.508 12.4347 17.5206 12.4537 17.5243 12.4987C17.5304 12.5725 17.4746 12.6901 17.3866 12.7889C17.2565 12.935 16.7759 13.2278 16.5457 13.3013C16.3966 13.3489 16.3612 13.3699 16.3612 13.411C16.3654 13.4374 16.3781 13.4616 16.3973 13.4798C16.432 13.5128 16.4379 13.5135 16.5412 13.4978C16.6003 13.4888 16.6803 13.4773 16.7183 13.4723C16.7623 13.4653 16.8045 13.4494 16.8423 13.4256C16.9132 13.3765 16.9366 13.3871 16.9361 13.4679C16.9355 13.5586 16.8851 13.6713 16.7599 13.8612C16.6395 14.051 16.5016 14.2288 16.348 14.3921C16.2551 14.4953 16.1475 14.622 16.108 14.6748C16.0252 14.7853 16.0232 14.8004 16.0595 15.0502C16.0727 15.1444 16.0809 15.2393 16.0839 15.3344C16.0864 15.5199 16.0631 15.5632 15.8372 15.792L15.6498 15.982L15.6595 16.0508C15.6905 16.2706 15.6962 16.2451 15.5887 16.3663C15.5317 16.4307 15.4827 16.5026 15.4697 16.5413C15.4207 16.6864 15.1634 17.017 15.0565 17.0723C14.8986 17.154 14.6888 17.2026 14.5827 17.1821C14.5178 17.1696 14.4896 17.1291 14.477 17.0304C14.4592 16.9484 14.4346 16.8681 14.4034 16.7903C14.3679 16.6982 14.3154 16.5376 14.2861 16.4314C14.2567 16.3252 14.2065 16.1556 14.1739 16.0523C14.1205 15.8833 14.1154 15.8538 14.1208 15.7457C14.1259 15.641 14.1339 15.6127 14.1842 15.5198L14.2418 15.4136L14.2219 15.3299C14.2093 15.275 14.2057 15.2184 14.2115 15.1624C14.2229 15.0619 14.2106 15.0338 14.0777 14.8573C13.9088 14.6329 13.881 14.5512 13.9195 14.3921C13.9478 14.2755 13.9423 14.1624 13.9068 14.127C13.8937 14.114 13.8448 14.0981 13.7975 14.0915C13.7224 14.0766 13.65 14.0501 13.5828 14.013L13.4537 13.9465L13.3858 13.9906C13.2865 14.0551 13.1821 14.0746 12.8854 14.0843L12.6183 14.093L12.546 14.0182C12.5067 13.9771 12.4604 13.9435 12.4095 13.9188C12.356 13.8982 12.3358 13.8777 12.2884 13.7954C12.2455 13.7267 12.1947 13.6633 12.1372 13.6066C12.0168 13.4919 12.0073 13.4574 12.0073 13.1343C12.0086 13.0229 12.003 12.9115 11.9903 12.8008C11.9747 12.7171 11.9763 12.7022 12.0093 12.6199C12.0865 12.4247 12.207 12.2501 12.3615 12.1098C12.402 12.0726 12.4334 12.0262 12.453 11.9745C12.482 11.9069 12.5178 11.8425 12.5597 11.7823C12.6739 11.6148 12.7157 11.5302 12.7157 11.4667C12.7157 11.4103 12.7069 11.3991 12.5607 11.2704L12.4899 11.208L12.4996 11.1108C12.5131 10.9747 12.5616 10.8247 12.6093 10.7713C12.6464 10.7296 12.6611 10.7249 12.8146 10.7055C12.9061 10.6939 12.9924 10.6777 13.0079 10.6693C13.0412 10.6484 13.0656 10.6157 13.0763 10.5776C13.087 10.5395 13.0833 10.4987 13.0658 10.4632C13.0379 10.4275 13.005 10.3961 12.9681 10.37C12.8471 10.2784 12.8393 10.2493 12.9356 10.2493C13.0111 10.2493 13.1231 10.1892 13.2219 10.0956C13.3002 10.0216 13.3061 10.0112 13.3061 9.94721C13.3061 9.8795 13.3075 9.87734 13.3991 9.81117C13.4994 9.7386 13.6473 9.5856 13.681 9.51946C13.697 9.47772 13.7072 9.43393 13.7113 9.38935C13.7248 9.26371 13.7323 9.23231 13.7488 9.23231C13.7568 9.23231 13.7637 9.25773 13.7639 9.28764C13.7646 9.42075 13.8124 9.51561 13.895 9.54803C13.936 9.56414 14.196 9.51621 14.3185 9.46996C14.424 9.43016 14.4569 9.38935 14.4716 9.28017C14.475 9.24462 14.4821 9.20953 14.4927 9.17547C14.5136 9.16196 14.5374 9.15375 14.5621 9.15154L14.6226 9.14108L14.6171 9.04237C14.6108 8.9272 14.6108 8.9272 14.7731 8.90664C14.8986 8.89075 14.9485 8.86214 14.9173 8.82401C14.9007 8.80364 14.8248 8.78534 14.6491 8.75938C14.4927 8.73626 14.3982 8.66206 14.3982 8.56228C14.3982 8.53273 14.4229 8.4359 14.4528 8.34766C14.4991 8.21156 14.5048 8.18091 14.49 8.14799C14.4705 8.10462 14.4275 8.0992 14.3951 8.13603C14.3198 8.22177 14.1768 8.57424 14.1768 8.67445C14.1837 8.7186 14.1983 8.76116 14.22 8.80008C14.2851 8.92421 14.286 8.93611 14.2363 9.00946C14.2029 9.06337 14.1748 9.12048 14.1525 9.17996C14.1006 9.31905 14.0699 9.35196 13.9924 9.35196H13.9304L13.9233 9.27717C13.9162 9.20239 13.8289 9.00576 13.799 8.99723C13.7911 8.99496 13.7577 9.01764 13.7267 9.04637C13.6662 9.10248 13.6264 9.11881 13.5703 9.11054C13.5249 9.10386 13.4613 8.97506 13.4376 8.84195C13.4216 8.75222 13.4226 8.73573 13.4478 8.68417C13.4718 8.64256 13.504 8.60631 13.5422 8.57761C13.7575 8.41885 13.8232 8.31251 13.8972 8.00292C13.9654 7.71726 13.9661 7.71539 14.0284 7.64397C14.0967 7.56564 14.2757 7.43672 14.379 7.39144C14.4528 7.35909 14.6134 7.34683 14.6757 7.36878C14.702 7.38353 14.7228 7.40666 14.7348 7.43459C14.767 7.50354 14.8248 7.53195 14.9989 7.56457C15.1834 7.59912 15.2424 7.63953 15.3313 7.79204C15.4532 8.00142 15.5077 8.01611 15.4754 7.83092C15.4527 7.70081 15.4596 7.61734 15.4948 7.59619C15.5219 7.57992 15.541 7.59611 15.6094 7.69333L15.6336 7.72773L15.686 7.69108C15.7146 7.67103 15.7738 7.62498 15.8166 7.58938C15.8845 7.53292 15.9012 7.52561 15.9435 7.53405C15.9702 7.53938 15.9979 7.53678 16.0232 7.52657C16.055 7.51294 16.0885 7.50388 16.1228 7.49965C16.1878 7.49045 16.1916 7.48711 16.1952 7.43758C16.2013 7.35221 16.187 7.34388 16.0158 7.33262C15.9302 7.32698 15.8513 7.31439 15.8394 7.30447C15.8107 7.28787 15.7796 7.27576 15.7472 7.26858C15.6419 7.24191 15.618 7.1923 15.6209 7.00685C15.6213 6.91117 15.6164 6.81555 15.6063 6.72044C15.591 6.59331 15.592 6.57106 15.6166 6.49909C15.6308 6.45671 15.6515 6.41684 15.6778 6.38093C15.7112 6.3434 15.7125 6.34324 15.7583 6.37047C15.7817 6.38389 15.8025 6.40165 15.8195 6.42281L15.8195 6.42281ZM12.1955 8.13528L12.391 8.145V8.23025C12.391 8.34392 12.3445 8.43415 12.2641 8.47634C12.1608 8.53056 11.9574 8.50599 11.9109 8.43365C11.8825 8.38944 11.8525 8.20183 11.8655 8.14949C11.8754 8.10961 11.8789 8.10804 11.9379 8.11659C11.9721 8.12153 12.0877 8.12992 12.1955 8.13528ZM12.9592 9.1336C12.9806 9.1534 12.9958 9.1791 13.0029 9.20754C13.01 9.23597 13.0088 9.2659 12.9993 9.29363C12.9829 9.33785 12.9981 9.37289 13.0972 9.51946C13.1149 9.54371 13.1305 9.56948 13.1437 9.59649C13.1558 9.62333 13.1701 9.6491 13.1865 9.67351C13.2582 9.78867 13.2605 9.92029 13.191 9.92029C13.1225 9.92029 13.0493 9.95835 12.9607 10.0399C12.9076 10.0889 12.8539 10.1297 12.8426 10.1297C12.8112 10.1297 12.8023 10.0863 12.8121 9.98011C12.8244 9.84551 12.8542 9.7434 12.8991 9.68249C12.9537 9.6083 12.9477 9.57331 12.8646 9.48058C12.7775 9.38336 12.7599 9.31535 12.7973 9.22034C12.8203 9.16201 12.8796 9.0977 12.9105 9.0977C12.9292 9.1058 12.9459 9.11807 12.9592 9.1336V9.1336ZM12.7543 9.61369C12.7432 9.73483 12.6986 9.83736 12.6375 9.88231C12.5598 9.93939 12.5102 9.86644 12.5096 9.69445C12.5091 9.56284 12.5105 9.56075 12.6375 9.50885C12.7527 9.46174 12.7671 9.47459 12.7543 9.61369ZM7.57959 12.3417C7.5779 12.3601 7.56948 12.3771 7.55597 12.3895C7.53679 12.4053 7.53 12.405 7.51977 12.388C7.50371 12.3613 7.52793 12.3133 7.55745 12.3133C7.56397 12.3144 7.56985 12.3179 7.57394 12.3231C7.57804 12.3284 7.58005 12.335 7.57959 12.3417ZM7.53088 12.5937C7.5267 12.6085 7.52351 12.6004 7.52351 12.575C7.52351 12.5496 7.5267 12.5382 7.53088 12.5488C7.53512 12.5635 7.53512 12.579 7.53088 12.5937ZM7.71238 12.578C7.74477 12.6199 7.76604 12.6835 7.75227 12.6973C7.74388 12.7057 7.65338 12.5705 7.65338 12.5496C7.65338 12.5252 7.6823 12.5391 7.71238 12.578ZM7.57073 12.8229C7.71094 12.8925 7.81573 12.9534 7.81573 12.9653C7.81573 12.9945 7.7567 13.0062 7.64748 12.9987C7.56335 12.993 7.54657 12.9863 7.49399 12.9382C7.40076 12.8529 7.32426 12.8205 7.18552 12.8077C7.02022 12.7924 7.0063 12.7722 7.12944 12.7261C7.25316 12.6799 7.30507 12.6913 7.57073 12.8229ZM8.13305 13.0291C8.16733 13.0454 8.19873 13.0674 8.22603 13.094L8.25998 13.1313L8.20389 13.1418C8.17279 13.1476 8.07549 13.156 7.98546 13.1605C7.85411 13.1672 7.81748 13.1643 7.79359 13.1456C7.76408 13.1224 7.76408 13.1224 7.80514 13.079C7.87874 13.0013 8.02531 12.9789 8.13305 13.0291L8.13305 13.0291ZM8.45056 13.1134C8.47526 13.1428 8.47103 13.1456 8.38395 13.1573L8.31016 13.1672L8.35444 13.1291C8.40462 13.0859 8.42473 13.0827 8.45056 13.1134ZM7.61755 13.1672C7.63082 13.1892 7.60911 13.2084 7.56483 13.2137C7.53679 13.217 7.52687 13.21 7.52351 13.1844C7.51982 13.1564 7.52646 13.1508 7.56335 13.1508C7.57301 13.1498 7.58277 13.1507 7.59207 13.1535C7.60138 13.1564 7.61003 13.161 7.61755 13.1672ZM8.78129 13.2944C8.79593 13.3333 8.79097 13.3602 8.76916 13.3602C8.76152 13.3593 8.75416 13.3567 8.74754 13.3528C8.74091 13.3488 8.73517 13.3435 8.73068 13.3372C8.72619 13.3308 8.72304 13.3236 8.72144 13.316C8.71984 13.3084 8.71982 13.3005 8.72139 13.2929C8.72356 13.2865 8.72769 13.281 8.73317 13.2771C8.73865 13.2732 8.7452 13.2712 8.75188 13.2714C8.75855 13.2716 8.765 13.2739 8.77029 13.278C8.77558 13.2821 8.77943 13.2879 8.78129 13.2944ZM11.0837 15.0143C11.0981 15.0532 11.0935 15.0652 11.0642 15.0652C11.0572 15.0649 11.0503 15.0628 11.0443 15.0592C11.0382 15.0556 11.0331 15.0506 11.0294 15.0446C11.0257 15.0385 11.0235 15.0316 11.023 15.0246C11.0226 15.0175 11.0238 15.0104 11.0266 15.0038C11.0303 14.9991 11.0352 14.9955 11.0408 14.9934C11.0464 14.9913 11.0524 14.9908 11.0582 14.9918C11.0641 14.9929 11.0695 14.9956 11.074 14.9995C11.0785 15.0035 11.0818 15.0086 11.0837 15.0143ZM16.7311 15.4735C16.7099 15.6134 16.5504 16.0941 16.4732 16.2512C16.4209 16.3574 16.4072 16.3745 16.3708 16.3791C16.3419 16.3811 16.3129 16.3767 16.2859 16.3663C16.2372 16.3458 16.1546 16.2574 16.1546 16.2258C16.1708 16.175 16.1918 16.1259 16.2173 16.0792C16.2516 16.0104 16.2984 15.9126 16.3206 15.8631C16.3508 15.7958 16.3725 15.7677 16.4055 15.7536C16.4561 15.7319 16.5189 15.6574 16.6252 15.4929C16.7519 15.297 16.758 15.2959 16.7311 15.4735L16.7311 15.4735ZM10.5919 18.8953C10.5506 18.9302 10.4973 18.9278 10.4906 18.8909C10.4865 18.8685 10.4974 18.8641 10.5565 18.8648L10.6273 18.8655L10.5919 18.8953V18.8953Z" fill="white"/>
<path d="M10.0586 5.71639C10.04 5.75228 10.0618 5.80612 10.0948 5.80612C10.11 5.80612 10.1166 5.78818 10.1166 5.7463C10.1166 5.679 10.086 5.66325 10.0586 5.71639Z" fill="white"/>
<path d="M6.73937 7.3949C6.72776 7.417 6.72168 7.44165 6.72168 7.46669C6.72168 7.49173 6.72776 7.51638 6.73937 7.53848C6.76303 7.56248 6.81308 7.56128 6.84699 7.5359C6.87021 7.51853 6.8712 7.51156 6.85489 7.48015C6.83392 7.43977 6.77975 7.37695 6.76591 7.37695C6.75556 7.38026 6.74636 7.38648 6.73937 7.3949Z" fill="white"/>
<path d="M7.33134 10.217C7.27419 10.253 7.26269 10.2724 7.29178 10.2839C7.33427 10.3006 7.41806 10.2306 7.38994 10.2019C7.38186 10.1937 7.35918 10.1995 7.33134 10.217Z" fill="white"/>
<path d="M7.13882 10.2419C7.09652 10.26 7.07216 10.3081 7.10527 10.3081C7.12423 10.3081 7.20304 10.2379 7.19423 10.2288C7.19025 10.2247 7.16506 10.2307 7.13882 10.2419Z" fill="white"/>
<path d="M7.4807 10.413C7.47114 10.4288 7.48495 10.576 7.49964 10.6149C7.51208 10.6478 7.54635 10.6374 7.5682 10.594C7.60059 10.5297 7.61194 10.4443 7.59145 10.419C7.57084 10.3936 7.49496 10.3895 7.4807 10.413Z" fill="white"/>
<path d="M7.18156 10.654C7.1638 10.6959 7.15358 10.7407 7.15137 10.7863V10.8529L7.18082 10.823C7.21912 10.7841 7.25352 10.6306 7.22943 10.6061C7.21577 10.5922 7.20489 10.6031 7.18156 10.654Z" fill="white"/>
<path d="M15.2088 7.95112C15.0658 7.99123 15.0387 8.02576 15.0622 8.13792C15.0807 8.22616 15.165 8.338 15.1926 8.31086C15.2058 8.29787 15.2045 8.27925 15.1874 8.23738C15.1758 8.2105 15.1681 8.18203 15.1646 8.15287C15.1646 8.11997 15.2163 8.08595 15.2305 8.1095C15.2532 8.14715 15.2927 8.12296 15.3258 8.05117C15.38 7.93345 15.3533 7.91061 15.2088 7.95112V7.95112Z" fill="white"/>
<path d="M15.519 10.2633C15.507 10.2855 15.5084 10.3037 15.5245 10.3336C15.5823 10.4413 15.5835 10.445 15.5684 10.4697C15.5416 10.5134 15.457 10.5624 15.4083 10.5624C15.374 10.5611 15.3412 10.5479 15.3153 10.525C15.2966 10.5071 15.2738 10.4943 15.2489 10.4877C15.2138 10.4877 15.1529 10.5445 15.1125 10.6148C15.0765 10.6776 15.0758 10.6826 15.0978 10.7255C15.1274 10.7834 15.1678 10.7853 15.2903 10.7344C15.4029 10.6877 15.426 10.6883 15.5781 10.7422C15.7419 10.8003 15.8589 10.8028 15.9116 10.7494C15.9544 10.706 15.9593 10.6373 15.9219 10.604C15.8895 10.5801 15.8549 10.5592 15.8186 10.5417C15.7212 10.4927 15.6468 10.4152 15.6243 10.3396C15.6066 10.2798 15.5735 10.2334 15.5485 10.2334C15.5412 10.2334 15.5279 10.2469 15.519 10.2633V10.2633Z" fill="white"/>
<path d="M14.0368 10.5463C14.0323 10.5537 14.0509 10.5897 14.0776 10.6256C14.1227 10.6861 14.2556 10.7686 14.35 10.7946C14.4011 10.8087 14.3913 10.7663 14.3293 10.7053C14.2674 10.6443 14.0493 10.5258 14.0368 10.5463Z" fill="white"/>
<path d="M13.7399 10.7923C13.7323 10.8123 13.7049 10.8163 13.5765 10.8163H13.4223L13.35 10.8847C13.268 10.9619 13.2047 11.0572 13.1651 11.1633C13.1325 11.2524 13.0563 11.3303 12.9441 11.389C12.8225 11.4527 12.8747 11.4604 13.0135 11.3993C13.2968 11.2745 13.28 11.2789 13.5345 11.2622C13.8223 11.2432 13.9328 11.253 13.9576 11.2994C13.9668 11.3168 13.9776 11.3921 13.9817 11.4684L13.989 11.606L14.0776 11.6224C14.1276 11.6316 14.1756 11.6499 14.2193 11.6762C14.2483 11.6967 14.3152 11.7445 14.3669 11.7817C14.4318 11.8285 14.4733 11.8483 14.4997 11.8452C14.5369 11.8409 14.5381 11.8378 14.5381 11.7435C14.5361 11.7037 14.5405 11.6638 14.551 11.6254C14.5682 11.5975 14.665 11.6099 14.8923 11.6691C14.9907 11.6946 15.0908 11.7129 15.1919 11.7237C15.3321 11.7336 15.4009 11.7138 15.5328 11.6258C15.6267 11.5632 15.6659 11.4893 15.6665 11.3741C15.6671 11.2455 15.6671 11.2455 15.5314 11.296C15.3631 11.3585 15.2814 11.3651 15.1757 11.3246C15.0517 11.2772 14.9304 11.1531 14.8951 11.0376C14.854 10.903 14.8193 10.8847 14.7403 10.9561L14.7063 10.9868L14.7956 11.0705C14.8591 11.1301 14.8849 11.1651 14.8849 11.1917C14.8849 11.2533 14.8421 11.2799 14.7432 11.2799C14.6429 11.2799 14.6365 11.2766 14.5919 11.2021C14.5507 11.1333 14.4294 11.0235 14.4008 11.0291C14.3896 11.0313 14.3666 11.0698 14.3506 11.1131C14.3269 11.171 14.2926 11.2238 14.2495 11.2687C14.1843 11.3375 14.1737 11.3434 14.1307 11.3346C14.0614 11.3206 14.0261 11.283 14.0316 11.2291C14.0352 11.1943 14.0496 11.1773 14.0953 11.1535C14.147 11.1267 14.1549 11.1154 14.1588 11.063C14.162 11.0338 14.1569 11.0042 14.144 10.9778C14.0967 10.9365 14.0458 10.8997 13.992 10.8676C13.8503 10.7772 13.7564 10.7492 13.7399 10.7923V10.7923ZM13.8051 10.8836C13.8287 10.9359 13.8267 11.0431 13.8015 11.078C13.7816 11.1055 13.7795 11.1049 13.7352 11.0601C13.6832 11.0074 13.6767 10.9598 13.7119 10.8911C13.7395 10.8372 13.7826 10.8337 13.8051 10.8836Z" fill="white"/>
<path d="M15.6393 12.0255C15.5952 12.1083 15.6353 12.2394 15.7662 12.4398C15.8271 12.5376 15.8803 12.6401 15.9254 12.7464C16.0351 13.0126 16.1729 13.2018 16.2492 13.1908C16.3265 13.1796 16.2778 12.9857 16.146 12.7793C16.0988 12.7043 16.0559 12.6267 16.0175 12.5467C15.9857 12.4785 15.9502 12.4121 15.9112 12.3478C15.8785 12.2954 15.8486 12.2412 15.8217 12.1855C15.7903 12.1167 15.6916 11.9971 15.6662 11.9971C15.66 11.9971 15.6473 12.0105 15.6393 12.0255Z" fill="white"/>
<defs>
<linearGradient id="paint0_linear" x1="22.8114" y1="0.891299" x2="-0.900851" y2="24.2987" gradientUnits="userSpaceOnUse">
<stop offset="0.181" stop-color="#6F2296"/>
<stop offset="0.95313" stop-color="#4261E8"/>
</linearGradient>
<linearGradient id="paint1_linear" x1="31.1924" y1="21.9945" x2="65.1315" y2="-1.20397" gradientUnits="userSpaceOnUse">
<stop offset="0.02075" stop-color="#6F2296"/>
<stop offset="0.03757" stop-color="#6F2296"/>
<stop offset="0.14297" stop-color="#6F2296"/>
<stop offset="0.30192" stop-color="#6B279D"/>
<stop offset="0.52638" stop-color="#6135AF"/>
<stop offset="0.78858" stop-color="#514CCD"/>
<stop offset="0.98159" stop-color="#4261E8"/>
</linearGradient>
<linearGradient id="paint2_linear" x1="31.1909" y1="21.9958" x2="65.13" y2="-1.20265" gradientUnits="userSpaceOnUse">
<stop offset="0.02075" stop-color="#6F2296"/>
<stop offset="0.03757" stop-color="#6F2296"/>
<stop offset="0.14297" stop-color="#6F2296"/>
<stop offset="0.30192" stop-color="#6B279D"/>
<stop offset="0.52638" stop-color="#6135AF"/>
<stop offset="0.78858" stop-color="#514CCD"/>
<stop offset="0.98159" stop-color="#4261E8"/>
</linearGradient>
</defs>
</svg>
